<svg id="svg" version="1.1" xmlns="http://www.w3.org/2000/svg" xmlns:xlink="http://www.w3.org/1999/xlink" width="400" height="626.1569416498994" viewBox="0, 0, 400,626.1569416498994"><g id="svgg"><path id="path0" d="M53.427 65.500 C 53.488 139.762,54.081 307.438,54.285 308.000 C 54.683 309.094,54.767 324.373,54.376 324.615 C 53.861 324.933,53.874 347.600,54.389 347.600 C 54.638 347.600,54.775 357.036,54.769 373.700 C 54.764 388.055,54.769 401.780,54.780 404.200 L 54.800 408.600 105.738 408.600 C 149.544 408.600,156.774 408.681,157.373 409.177 C 158.460 410.080,158.186 568.182,157.096 568.980 C 156.472 569.436,156.460 569.552,156.996 569.996 C 157.709 570.589,157.846 575.194,157.186 576.426 C 156.948 576.871,156.930 577.200,157.143 577.200 C 157.347 577.200,157.618 576.930,157.745 576.600 C 158.013 575.900,180.554 575.678,180.982 576.371 C 181.109 576.576,180.804 576.827,180.306 576.931 C 179.808 577.034,184.127 577.092,189.905 577.059 C 198.167 577.012,200.368 577.106,200.217 577.500 C 200.058 577.914,212.374 578.328,218.300 578.107 C 218.575 578.097,218.800 578.249,218.800 578.444 C 218.800 578.640,218.991 578.800,219.224 578.800 C 219.457 578.800,219.536 578.620,219.400 578.400 C 219.264 578.180,219.567 577.988,220.076 577.973 C 220.584 577.958,223.385 577.898,226.299 577.840 C 229.214 577.782,231.719 577.615,231.866 577.468 C 232.013 577.320,231.923 577.200,231.667 577.200 C 231.055 577.200,230.990 544.177,231.601 543.799 C 231.869 543.634,231.869 543.303,231.601 542.802 C 231.078 541.824,231.077 536.800,231.600 536.800 C 231.820 536.800,231.997 536.485,231.994 536.100 C 231.989 535.502,231.931 535.487,231.600 536.000 C 231.348 536.390,231.212 525.334,231.212 504.400 C 231.212 483.466,231.348 472.410,231.600 472.800 C 231.897 473.260,231.988 473.121,231.988 472.200 C 231.988 471.279,231.897 471.140,231.600 471.600 C 231.336 472.008,231.210 470.824,231.206 467.900 C 231.202 464.727,231.331 463.598,231.700 463.594 C 232.047 463.590,232.024 463.477,231.626 463.224 C 231.138 462.916,231.134 462.762,231.600 462.200 C 232.002 461.716,232.026 461.463,231.690 461.255 C 231.097 460.889,230.933 409.707,231.522 409.118 C 231.761 408.879,239.228 408.751,251.116 408.782 C 266.083 408.821,270.359 408.723,270.488 408.336 C 270.653 407.840,276.673 407.732,278.569 408.191 C 279.026 408.302,279.175 408.289,278.900 408.163 C 277.627 407.578,278.671 407.200,281.557 407.200 C 284.052 407.200,284.765 407.069,284.954 406.575 C 285.092 406.216,285.397 406.074,285.669 406.243 C 285.931 406.404,286.967 406.502,287.972 406.460 C 288.977 406.418,290.400 406.559,291.134 406.774 C 292.310 407.117,292.408 407.091,291.960 406.551 C 291.250 405.696,292.202 405.145,293.522 405.646 C 294.066 405.853,294.606 405.927,294.722 405.811 C 294.838 405.695,294.723 405.600,294.467 405.600 C 294.210 405.600,294.000 405.441,294.000 405.247 C 294.000 404.625,295.959 404.494,297.020 405.044 C 297.957 405.530,298.026 405.512,297.812 404.838 C 297.530 403.949,298.938 403.432,300.038 404.021 C 301.006 404.538,301.213 404.498,300.960 403.840 C 300.842 403.533,300.938 403.162,301.173 403.017 C 301.408 402.872,301.600 402.964,301.600 403.222 C 301.600 403.542,301.896 403.498,302.528 403.084 C 303.038 402.750,303.983 402.415,304.628 402.340 C 305.273 402.264,305.900 402.068,306.022 401.903 C 306.145 401.739,306.775 401.564,307.422 401.514 C 308.070 401.465,308.848 401.184,309.152 400.890 C 309.455 400.595,309.959 400.452,310.272 400.572 C 310.588 400.693,310.733 400.614,310.597 400.395 C 310.369 400.026,311.052 399.835,312.363 399.903 C 312.672 399.919,313.172 399.685,313.474 399.383 C 313.776 399.081,314.265 398.927,314.560 399.040 C 314.855 399.153,315.212 398.947,315.352 398.581 C 315.503 398.188,315.856 398.013,316.219 398.152 C 316.565 398.285,316.929 398.129,317.058 397.793 C 317.183 397.467,317.626 397.200,318.043 397.200 C 318.459 397.200,318.800 396.999,318.800 396.753 C 318.800 396.504,319.153 396.399,319.600 396.516 C 320.040 396.631,320.400 396.551,320.400 396.339 C 320.400 396.127,320.580 396.064,320.800 396.200 C 321.020 396.336,321.200 396.284,321.200 396.084 C 321.200 395.685,324.398 394.140,324.892 394.300 C 325.061 394.355,325.203 394.175,325.206 393.900 C 325.210 393.567,325.342 393.600,325.600 394.000 C 325.886 394.443,325.989 394.462,325.994 394.071 C 325.997 393.781,326.228 393.331,326.507 393.071 C 327.334 392.303,329.743 391.045,329.436 391.542 C 329.280 391.794,329.343 392.000,329.576 392.000 C 329.809 392.000,330.000 391.730,330.000 391.400 C 330.000 391.070,330.261 390.800,330.579 390.800 C 330.898 390.800,331.644 390.350,332.238 389.800 C 332.831 389.250,333.566 388.800,333.871 388.800 C 334.176 388.800,334.526 388.537,334.650 388.215 C 334.773 387.894,335.262 387.507,335.737 387.357 C 336.211 387.206,337.140 386.498,337.800 385.784 C 338.460 385.070,339.360 384.411,339.800 384.319 C 340.240 384.228,340.555 383.938,340.500 383.676 C 340.445 383.414,340.561 383.200,340.758 383.200 C 340.954 383.200,341.664 382.705,342.336 382.100 C 344.253 380.371,345.771 379.211,346.124 379.205 C 346.302 379.202,346.335 379.019,346.198 378.797 C 346.061 378.576,346.272 378.271,346.666 378.119 C 347.556 377.778,350.193 375.174,350.218 374.613 C 350.228 374.386,350.467 374.249,350.748 374.310 C 351.029 374.370,351.149 374.241,351.014 374.023 C 350.879 373.805,351.136 373.397,351.584 373.117 C 352.033 372.837,352.400 372.462,352.400 372.285 C 352.400 372.107,353.255 371.104,354.300 370.056 C 355.345 369.007,356.455 367.666,356.768 367.075 C 357.080 366.484,357.463 366.000,357.619 366.000 C 357.775 366.000,358.127 365.460,358.400 364.800 C 358.673 364.140,359.055 363.600,359.249 363.600 C 359.442 363.600,359.600 363.356,359.600 363.058 C 359.600 362.761,360.036 362.046,360.569 361.471 C 361.102 360.896,361.665 360.015,361.821 359.513 C 361.977 359.011,362.441 358.122,362.852 357.538 C 363.264 356.954,363.600 356.279,363.600 356.038 C 363.600 355.797,363.780 355.600,364.000 355.600 C 364.220 355.600,364.400 355.240,364.400 354.800 C 364.400 354.307,364.669 353.998,365.100 353.994 C 365.650 353.989,365.683 353.913,365.253 353.641 C 364.806 353.358,364.842 353.158,365.453 352.547 C 365.864 352.136,366.207 351.620,366.215 351.400 C 366.255 350.377,367.356 347.649,367.655 347.834 C 367.840 347.948,367.873 347.733,367.728 347.356 C 367.515 346.801,367.635 346.716,368.364 346.907 C 369.091 347.097,369.210 347.014,368.986 346.471 C 368.433 345.131,368.398 344.589,368.825 344.000 C 369.153 343.548,369.311 343.523,369.464 343.900 C 369.575 344.175,369.962 344.400,370.322 344.400 C 370.827 344.400,370.771 344.255,370.079 343.771 C 369.422 343.310,369.228 342.854,369.357 342.071 C 369.455 341.482,369.552 340.820,369.573 340.600 C 369.595 340.380,369.801 340.470,370.032 340.800 C 370.366 341.276,370.403 341.223,370.213 340.542 C 370.067 340.019,370.219 339.438,370.603 339.054 C 370.950 338.707,371.198 338.013,371.155 337.512 C 370.989 335.599,371.187 334.820,371.782 335.049 C 372.257 335.231,372.300 335.046,372.015 334.053 C 371.823 333.383,371.727 332.512,371.802 332.117 C 371.877 331.723,371.953 331.246,371.969 331.057 C 371.986 330.869,372.251 330.811,372.559 330.929 C 372.919 331.067,373.183 330.802,373.301 330.184 C 373.402 329.656,373.351 329.307,373.188 329.408 C 372.773 329.664,372.432 328.165,372.684 327.200 C 372.911 326.331,373.446 326.137,373.679 326.838 C 373.759 327.078,373.868 326.223,373.920 324.938 C 373.973 323.652,374.114 322.285,374.235 321.900 C 374.355 321.515,374.285 321.200,374.078 321.200 C 373.864 321.200,373.678 318.869,373.647 315.800 C 373.611 312.204,373.736 310.400,374.020 310.400 C 374.255 310.400,374.318 310.190,374.159 309.934 C 374.001 309.678,373.913 308.327,373.963 306.932 C 374.038 304.866,373.930 304.348,373.380 304.137 C 372.818 303.921,372.746 303.525,372.950 301.785 C 373.165 299.955,373.102 299.668,372.442 299.495 C 371.861 299.343,371.714 298.990,371.800 297.949 C 371.862 297.207,371.932 296.364,371.956 296.076 C 371.980 295.787,372.206 295.680,372.462 295.838 C 372.748 296.015,372.815 295.948,372.638 295.662 C 372.481 295.408,372.093 295.200,371.776 295.200 C 371.226 295.200,370.995 294.271,371.141 292.647 C 371.179 292.234,370.908 291.675,370.540 291.405 C 370.142 291.115,369.973 290.648,370.122 290.258 C 370.261 289.896,370.190 289.600,369.964 289.600 C 369.738 289.600,369.664 289.420,369.800 289.200 C 369.936 288.980,369.857 288.800,369.624 288.800 C 369.017 288.800,369.100 287.381,369.737 286.852 C 370.032 286.607,370.431 286.540,370.624 286.703 C 370.816 286.867,370.733 286.685,370.438 286.300 C 369.868 285.555,369.385 285.328,369.800 286.000 C 369.936 286.220,369.779 286.400,369.451 286.400 C 368.850 286.400,368.139 284.927,368.544 284.522 C 368.664 284.403,368.490 284.033,368.158 283.701 C 367.826 283.369,367.645 282.859,367.757 282.569 C 367.881 282.245,367.749 282.121,367.418 282.249 C 367.025 282.399,366.899 282.121,366.960 281.241 C 367.011 280.498,366.824 279.941,366.477 279.808 C 366.138 279.678,365.993 279.269,366.117 278.795 C 366.232 278.357,366.181 278.088,366.005 278.197 C 365.574 278.463,365.129 277.239,365.461 276.702 C 365.605 276.468,365.545 276.386,365.328 276.521 C 364.829 276.829,363.492 274.098,363.855 273.511 C 364.003 273.272,363.942 273.189,363.720 273.326 C 363.498 273.463,362.975 272.863,362.558 271.992 C 362.141 271.122,361.665 270.407,361.500 270.405 C 361.335 270.402,361.200 270.055,361.200 269.633 C 361.200 269.212,361.055 268.807,360.877 268.733 C 360.409 268.541,358.000 264.935,358.000 264.428 C 358.000 264.193,357.832 264.000,357.627 264.000 C 357.422 264.000,357.143 263.649,357.006 263.220 C 356.870 262.791,355.962 261.597,354.989 260.567 C 354.015 259.536,353.333 258.509,353.471 258.285 C 353.616 258.050,353.526 257.998,353.259 258.164 C 353.003 258.321,352.696 258.194,352.575 257.880 C 352.264 257.070,342.057 246.800,341.562 246.800 C 341.337 246.800,341.281 246.592,341.438 246.338 C 341.597 246.081,341.550 245.984,341.331 246.119 C 341.115 246.252,340.053 245.658,338.969 244.798 C 335.450 242.003,334.880 241.600,334.446 241.600 C 334.211 241.600,333.725 241.152,333.365 240.603 C 333.006 240.055,332.551 239.707,332.353 239.829 C 332.156 239.951,331.711 239.768,331.365 239.422 C 331.019 239.076,330.570 238.895,330.368 239.020 C 330.165 239.145,330.000 239.072,330.000 238.857 C 330.000 238.642,330.225 238.363,330.500 238.237 C 330.775 238.111,330.637 238.095,330.193 238.201 C 329.687 238.323,328.982 238.020,328.301 237.389 C 327.704 236.835,327.115 236.405,326.991 236.433 C 326.378 236.569,324.444 235.453,324.667 235.092 C 324.812 234.856,324.731 234.796,324.478 234.952 C 323.990 235.253,322.526 234.546,321.678 233.600 C 321.383 233.270,321.253 233.223,321.391 233.495 C 321.553 233.815,321.432 233.910,321.052 233.764 C 320.727 233.640,320.359 233.271,320.234 232.944 C 320.108 232.617,319.812 232.469,319.576 232.615 C 319.340 232.761,318.875 232.547,318.544 232.140 C 318.212 231.733,318.053 231.623,318.191 231.895 C 318.356 232.222,318.229 232.309,317.821 232.153 C 317.479 232.022,317.197 231.619,317.194 231.257 C 317.189 230.687,317.137 230.679,316.800 231.200 C 316.542 231.600,316.410 231.633,316.406 231.300 C 316.403 231.025,316.265 230.821,316.100 230.847 C 315.200 230.989,314.384 230.749,314.597 230.405 C 314.741 230.173,314.568 230.114,314.180 230.263 C 313.805 230.407,313.370 230.275,313.173 229.958 C 312.838 229.418,312.622 229.345,311.076 229.246 C 310.678 229.221,310.457 229.032,310.584 228.827 C 310.711 228.620,310.320 228.509,309.707 228.578 C 308.238 228.745,307.848 228.466,308.481 227.700 C 308.947 227.135,308.907 227.129,308.088 227.636 C 307.296 228.126,307.125 228.121,306.794 227.600 C 306.517 227.165,306.411 227.144,306.406 227.524 C 306.403 227.812,306.217 227.934,305.993 227.796 C 305.770 227.658,305.679 227.395,305.792 227.212 C 305.905 227.029,305.448 226.918,304.776 226.964 C 303.342 227.064,302.740 226.445,303.960 226.126 C 304.422 226.006,304.800 225.741,304.800 225.539 C 304.800 225.318,304.521 225.321,304.100 225.545 C 302.913 226.178,300.986 226.258,301.109 225.669 C 301.170 225.376,300.906 225.179,300.509 225.219 C 299.049 225.369,298.400 225.183,298.400 224.613 C 298.400 224.179,298.174 224.109,297.536 224.345 C 296.563 224.705,294.800 224.474,294.800 223.987 C 294.800 223.811,295.025 223.588,295.300 223.491 C 295.575 223.394,294.826 223.405,293.635 223.515 C 291.894 223.675,291.513 223.605,291.685 223.157 C 291.854 222.717,291.489 222.629,289.950 222.739 C 288.133 222.868,288.000 222.813,287.994 221.939 C 287.990 221.335,287.876 221.175,287.676 221.491 C 287.504 221.761,286.725 221.958,285.945 221.928 C 285.164 221.899,284.305 222.011,284.036 222.178 C 283.727 222.369,283.470 222.189,283.339 221.689 C 283.152 220.972,282.865 220.914,280.328 221.073 C 278.056 221.215,277.433 221.124,277.046 220.595 C 276.628 220.023,276.092 219.987,272.784 220.302 C 268.633 220.698,267.600 220.589,267.600 219.753 C 267.600 219.303,266.243 219.198,260.300 219.189 C 253.512 219.179,247.959 218.952,246.300 218.616 C 245.915 218.539,245.600 218.620,245.600 218.797 C 245.600 218.975,244.925 219.108,244.100 219.093 C 243.275 219.079,238.730 219.167,234.000 219.290 C 228.444 219.435,225.223 219.370,224.900 219.108 C 224.560 218.832,224.400 218.835,224.400 219.118 C 224.400 219.637,184.585 219.760,181.852 219.249 C 180.660 219.027,180.000 219.045,180.000 219.301 C 180.000 219.560,179.827 219.558,179.500 219.295 C 179.175 219.032,178.102 219.016,176.435 219.249 C 175.025 219.446,170.267 219.650,165.863 219.703 L 157.856 219.800 157.706 222.000 C 157.624 223.210,157.420 225.413,157.252 226.894 C 157.083 228.376,157.083 229.810,157.250 230.081 C 157.417 230.352,157.340 230.839,157.077 231.163 C 156.760 231.556,156.751 231.663,157.052 231.483 C 158.028 230.899,158.226 293.223,157.251 294.000 C 156.832 294.334,156.797 298.400,157.213 298.400 C 157.426 298.400,157.600 298.760,157.600 299.200 C 157.600 299.640,157.426 300.000,157.213 300.000 C 156.999 300.000,156.900 300.225,156.992 300.500 C 157.505 302.037,157.480 305.200,156.955 305.200 C 156.523 305.200,156.417 305.887,156.477 308.300 C 156.553 311.364,156.556 311.371,156.696 308.900 C 156.884 305.597,157.600 305.676,157.600 309.000 C 157.600 310.656,157.437 311.600,157.151 311.600 C 156.850 311.600,156.875 311.808,157.225 312.230 C 157.659 312.753,157.650 312.923,157.174 313.224 C 156.709 313.519,156.704 313.589,157.147 313.594 C 157.532 313.598,157.608 313.866,157.405 314.500 C 156.936 315.963,156.858 321.774,157.304 322.057 C 157.574 322.229,157.563 322.729,157.271 323.569 C 157.030 324.259,156.750 328.103,156.648 332.112 C 156.547 336.120,156.550 338.815,156.657 338.100 C 156.764 337.385,157.039 336.800,157.270 336.800 C 157.542 336.800,157.582 337.326,157.383 338.300 C 157.214 339.125,157.104 340.070,157.138 340.400 C 157.565 344.531,157.624 349.600,157.245 349.600 C 156.953 349.600,156.771 348.195,156.716 345.500 L 156.633 341.400 156.501 345.341 C 156.417 347.877,156.532 349.477,156.824 349.828 C 157.764 350.962,157.933 356.808,157.039 357.286 C 156.081 357.799,152.000 357.997,152.000 357.530 C 152.000 357.349,152.300 357.200,152.667 357.200 C 153.033 357.200,153.221 357.087,153.083 356.950 C 152.946 356.812,152.132 356.980,151.276 357.323 C 149.844 357.896,149.660 357.892,149.003 357.273 C 148.609 356.903,148.413 356.825,148.567 357.100 C 148.933 357.753,147.916 357.756,147.263 357.103 C 146.869 356.709,146.704 356.709,146.461 357.101 C 146.142 357.617,144.775 357.786,143.400 357.481 C 142.960 357.384,142.304 357.457,141.942 357.644 C 141.507 357.868,141.118 357.783,140.793 357.392 C 140.523 357.066,140.099 356.803,139.851 356.806 C 139.585 356.810,139.623 356.953,139.943 357.156 C 140.633 357.594,140.048 357.949,139.000 357.728 C 138.560 357.636,137.332 357.573,136.271 357.588 C 135.055 357.606,134.436 357.466,134.595 357.208 C 134.879 356.749,134.286 356.647,133.852 357.081 C 133.469 357.465,121.104 357.664,120.582 357.295 C 120.306 357.101,120.251 355.493,120.419 352.600 C 120.560 350.180,120.617 338.840,120.546 327.400 C 120.475 315.960,120.421 306.420,120.426 306.200 C 120.431 305.980,120.535 304.135,120.657 302.100 C 120.780 300.065,120.727 298.400,120.540 298.400 C 120.353 298.400,120.234 297.455,120.276 296.300 C 120.318 295.145,120.363 293.604,120.376 292.876 C 120.389 292.148,120.535 291.636,120.700 291.738 C 120.865 291.840,120.881 290.366,120.735 288.462 C 120.306 282.869,120.349 272.400,120.800 272.400 C 121.057 272.400,121.170 269.223,121.116 263.500 L 121.032 254.600 120.810 260.800 L 120.587 267.000 120.394 260.200 C 120.287 256.460,120.293 252.353,120.407 251.073 C 120.521 249.793,120.486 248.539,120.330 248.286 C 120.174 248.034,120.238 247.596,120.472 247.313 C 120.776 246.947,120.769 246.800,120.449 246.800 C 120.154 246.800,120.000 245.699,120.000 243.600 C 120.000 241.733,120.167 240.400,120.400 240.400 C 120.620 240.400,120.800 240.130,120.800 239.800 C 120.800 239.470,120.664 239.200,120.498 239.200 C 120.332 239.200,120.197 237.148,120.198 234.639 C 120.199 232.130,120.302 230.242,120.426 230.442 C 120.726 230.927,120.507 226.858,119.934 221.297 C 119.386 215.983,119.796 140.145,120.380 138.800 C 120.428 138.690,120.438 136.530,120.403 134.000 C 120.368 131.470,120.332 128.860,120.323 128.200 C 120.314 127.540,120.406 126.501,120.528 125.892 C 120.661 125.229,120.595 124.880,120.364 125.022 C 120.131 125.167,120.066 124.760,120.201 123.994 C 120.324 123.297,120.440 122.609,120.459 122.464 C 120.596 121.446,120.253 106.811,120.112 107.600 C 119.789 109.400,119.200 109.451,119.200 107.680 C 119.200 105.610,119.271 105.386,119.900 105.456 C 120.488 105.521,120.457 106.718,120.374 87.200 C 120.298 69.488,120.319 68.643,120.845 68.459 C 121.068 68.380,120.941 67.977,120.562 67.559 C 120.124 67.074,120.051 66.800,120.362 66.800 C 120.629 66.800,120.744 66.633,120.618 66.429 C 120.301 65.916,120.276 39.725,120.592 39.213 C 120.732 38.986,120.644 38.800,120.395 38.800 C 119.953 38.800,120.143 35.344,120.690 33.403 C 120.892 32.689,120.844 32.666,120.227 33.177 C 119.513 33.770,118.576 33.087,119.050 32.319 C 119.158 32.144,104.432 32.000,86.324 32.000 L 53.400 32.001 53.427 65.500 M119.835 36.298 C 119.398 36.735,119.099 36.040,119.412 35.317 C 119.710 34.632,119.732 34.633,119.897 35.331 C 119.993 35.734,119.965 36.169,119.835 36.298 M119.890 53.200 C 119.824 54.081,119.200 54.322,119.200 53.467 C 119.200 52.989,119.555 52.400,119.842 52.400 C 119.901 52.400,119.923 52.760,119.890 53.200 M119.861 74.702 C 119.915 76.011,119.870 76.090,119.510 75.322 C 119.167 74.592,119.284 73.195,119.687 73.202 C 119.749 73.203,119.828 73.878,119.861 74.702 M234.515 218.696 C 235.788 218.776,237.768 218.775,238.915 218.694 C 240.062 218.614,239.020 218.549,236.600 218.550 C 234.180 218.551,233.242 218.616,234.515 218.696 M120.924 251.800 C 120.926 253.120,121.001 253.612,121.090 252.893 C 121.179 252.174,121.177 251.094,121.086 250.493 C 120.995 249.892,120.922 250.480,120.924 251.800 M247.600 274.971 C 247.600 275.447,249.045 275.549,256.275 275.585 C 262.435 275.615,265.125 275.768,265.552 276.113 C 266.028 276.498,266.091 276.495,265.853 276.100 C 265.688 275.825,265.698 275.582,265.876 275.560 C 269.523 275.107,271.200 275.247,271.200 276.004 C 271.200 276.442,271.380 276.800,271.600 276.800 C 271.820 276.800,272.000 276.620,272.000 276.400 C 272.000 276.180,272.720 276.000,273.600 276.000 C 274.651 276.000,275.200 276.180,275.200 276.523 C 275.200 276.856,275.636 277.016,276.400 276.963 C 277.143 276.911,277.600 277.072,277.600 277.384 C 277.600 277.713,277.965 277.819,278.643 277.690 C 279.216 277.580,279.801 277.677,279.943 277.904 C 280.084 278.131,280.650 278.381,281.200 278.459 C 281.750 278.536,282.440 278.827,282.732 279.104 C 283.025 279.381,283.461 279.486,283.700 279.338 C 283.970 279.171,284.047 279.300,283.903 279.676 C 283.729 280.129,283.914 280.255,284.635 280.176 C 285.166 280.118,285.600 280.235,285.600 280.435 C 285.600 280.636,285.960 280.800,286.400 280.800 C 286.840 280.800,287.200 280.991,287.200 281.224 C 287.200 281.457,287.369 281.543,287.575 281.415 C 287.782 281.288,288.097 281.423,288.275 281.715 C 288.454 282.008,289.179 282.481,289.886 282.766 C 290.593 283.052,291.133 283.401,291.086 283.543 C 291.039 283.684,291.136 283.844,291.302 283.898 C 292.329 284.233,298.299 290.263,298.631 291.300 C 298.753 291.685,299.041 292.000,299.270 292.000 C 299.498 292.000,299.578 292.279,299.447 292.621 C 299.311 292.977,299.378 293.137,299.605 292.997 C 299.822 292.863,300.000 293.039,300.000 293.389 C 300.000 293.739,300.270 294.129,300.600 294.255 C 300.930 294.382,301.200 294.826,301.200 295.243 C 301.200 295.659,301.380 296.000,301.600 296.000 C 301.820 296.000,302.000 296.360,302.000 296.800 C 302.000 297.240,302.180 297.600,302.400 297.600 C 302.620 297.600,302.800 297.949,302.800 298.376 C 302.800 298.803,302.997 299.275,303.238 299.423 C 303.478 299.572,303.595 300.114,303.497 300.627 C 303.386 301.209,303.540 301.645,303.908 301.786 C 304.326 301.947,304.428 302.358,304.259 303.203 C 304.097 304.016,304.173 304.362,304.501 304.296 C 305.249 304.146,305.317 305.826,304.593 306.550 C 304.235 306.908,304.136 307.223,304.371 307.250 C 304.607 307.278,305.025 307.323,305.300 307.352 C 305.612 307.385,305.770 307.930,305.721 308.802 C 305.577 311.333,305.619 320.977,305.779 322.125 C 305.881 322.858,305.730 323.329,305.347 323.476 C 304.930 323.636,304.832 324.034,305.009 324.842 C 305.401 326.625,304.865 327.978,304.153 327.004 C 303.854 326.594,303.495 326.372,303.357 326.510 C 303.218 326.649,303.396 327.053,303.752 327.410 C 304.477 328.134,304.610 329.423,304.000 329.800 C 303.780 329.936,303.600 330.322,303.600 330.658 C 303.600 331.475,301.133 336.400,300.723 336.400 C 300.545 336.400,300.400 336.661,300.400 336.980 C 300.400 337.910,298.213 340.891,296.040 342.923 C 294.937 343.956,294.117 344.800,294.218 344.800 C 294.319 344.800,293.705 345.430,292.853 346.200 C 292.000 346.970,291.100 347.600,290.852 347.600 C 290.603 347.600,290.400 347.780,290.400 348.000 C 290.400 348.220,290.130 348.400,289.800 348.400 C 289.470 348.400,289.200 348.553,289.200 348.740 C 289.200 348.927,288.035 349.672,286.610 350.395 C 285.152 351.135,284.132 351.890,284.276 352.123 C 284.429 352.371,284.279 352.439,283.899 352.293 C 283.535 352.154,283.173 352.294,283.046 352.625 C 282.912 352.975,282.272 353.200,281.413 353.200 C 280.636 353.200,280.000 353.380,280.000 353.600 C 280.000 353.820,279.640 354.000,279.200 354.000 C 278.760 354.000,278.400 354.193,278.400 354.429 C 278.400 354.664,277.995 354.824,277.500 354.784 C 275.778 354.645,274.754 354.802,274.983 355.172 C 275.118 355.390,273.615 355.552,271.334 355.564 C 268.678 355.579,267.359 355.743,267.146 356.087 C 266.738 356.748,246.435 356.937,242.287 356.318 C 240.699 356.081,237.766 355.866,235.769 355.841 C 233.116 355.807,231.984 355.634,231.569 355.197 C 230.558 354.136,230.735 276.483,231.750 275.400 C 232.278 274.838,232.555 274.749,232.684 275.100 C 232.910 275.717,239.200 275.814,239.200 275.200 C 239.200 274.645,240.299 274.696,240.487 275.260 C 240.672 275.815,243.600 275.366,243.600 274.782 C 243.600 274.572,244.500 274.400,245.600 274.400 C 247.066 274.400,247.600 274.552,247.600 274.971 " stroke="none" fill="#bcb484" fill-rule="evenodd"></path><path id="path1" d="M63.105 31.083 C 63.602 31.179,64.322 31.175,64.705 31.075 C 65.087 30.975,64.680 30.896,63.800 30.901 C 62.920 30.905,62.607 30.987,63.105 31.083 M79.521 31.099 C 81.788 31.170,85.388 31.170,87.521 31.098 C 89.655 31.026,87.800 30.968,83.400 30.968 C 79.000 30.968,77.255 31.027,79.521 31.099 M105.891 31.489 C 106.601 31.577,107.861 31.579,108.691 31.492 C 109.521 31.405,108.940 31.333,107.400 31.331 C 105.860 31.329,105.181 31.400,105.891 31.489 M119.080 32.136 C 118.799 32.868,119.408 33.766,119.955 33.428 C 120.593 33.033,120.505 31.600,119.843 31.600 C 119.536 31.600,119.193 31.841,119.080 32.136 M120.612 34.117 C 120.441 34.512,120.413 34.947,120.551 35.084 C 120.957 35.490,121.284 34.920,121.097 34.131 C 120.932 33.433,120.910 33.432,120.612 34.117 M119.412 35.317 C 119.241 35.712,119.213 36.147,119.351 36.284 C 119.757 36.690,120.084 36.120,119.897 35.331 C 119.732 34.633,119.710 34.632,119.412 35.317 M120.920 45.200 C 120.920 46.410,120.995 46.905,121.087 46.300 C 121.178 45.695,121.178 44.705,121.087 44.100 C 120.995 43.495,120.920 43.990,120.920 45.200 M119.467 52.667 C 119.097 53.037,119.132 54.000,119.515 54.000 C 119.688 54.000,119.857 53.640,119.890 53.200 C 119.955 52.340,119.883 52.250,119.467 52.667 M120.667 60.667 C 120.241 61.092,120.359 66.327,120.800 66.600 C 121.054 66.757,121.200 65.671,121.200 63.624 C 121.200 60.391,121.161 60.173,120.667 60.667 M119.336 73.822 C 119.205 74.164,119.283 74.839,119.510 75.322 C 119.870 76.090,119.915 76.011,119.861 74.702 C 119.794 73.055,119.695 72.888,119.336 73.822 M120.643 79.833 C 120.245 80.870,120.368 85.533,120.800 85.800 C 121.055 85.957,121.200 84.804,121.200 82.624 C 121.200 79.189,121.094 78.657,120.643 79.833 M120.591 88.040 C 120.430 88.775,120.498 89.458,120.760 89.720 C 121.080 90.040,121.200 89.703,121.200 88.480 C 121.200 86.491,120.968 86.323,120.591 88.040 M120.550 100.998 C 120.615 103.343,121.200 103.345,121.200 101.000 C 121.200 100.010,121.043 99.200,120.850 99.200 C 120.658 99.200,120.523 100.009,120.550 100.998 M119.123 105.479 C 119.040 105.655,119.079 106.610,119.210 107.600 C 119.466 109.540,119.913 109.157,120.094 106.844 C 120.189 105.624,119.505 104.663,119.123 105.479 M120.400 111.000 C 120.400 111.330,120.580 111.600,120.800 111.600 C 121.020 111.600,121.200 111.330,121.200 111.000 C 121.200 110.670,121.020 110.400,120.800 110.400 C 120.580 110.400,120.400 110.670,120.400 111.000 M120.928 134.400 C 120.928 135.830,121.001 136.415,121.089 135.700 C 121.178 134.985,121.178 133.815,121.089 133.100 C 121.001 132.385,120.928 132.970,120.928 134.400 M267.600 219.753 C 267.600 220.431,268.764 220.772,270.160 220.506 C 271.975 220.159,271.417 219.200,269.400 219.200 C 268.134 219.200,267.600 219.364,267.600 219.753 M277.055 220.600 C 277.187 220.942,277.783 221.200,278.443 221.200 C 279.205 221.200,279.600 220.995,279.600 220.600 C 279.600 220.182,279.179 220.000,278.213 220.000 C 277.144 220.000,276.878 220.138,277.055 220.600 M283.200 221.333 C 283.200 222.110,283.548 222.339,284.395 222.117 C 285.723 221.770,285.717 220.800,284.387 220.800 C 283.665 220.800,283.200 221.009,283.200 221.333 M288.000 222.200 C 288.000 222.533,288.356 222.800,288.800 222.800 C 289.244 222.800,289.600 222.533,289.600 222.200 C 289.600 221.867,289.244 221.600,288.800 221.600 C 288.356 221.600,288.000 221.867,288.000 222.200 M291.867 222.667 C 291.406 223.127,291.575 223.600,292.200 223.600 C 292.530 223.600,292.800 223.330,292.800 223.000 C 292.800 222.375,292.327 222.206,291.867 222.667 M295.300 223.465 C 294.604 223.746,294.673 224.400,295.400 224.400 C 295.730 224.400,296.000 224.130,296.000 223.800 C 296.000 223.470,295.955 223.214,295.900 223.232 C 295.845 223.249,295.575 223.354,295.300 223.465 M298.400 224.600 C 298.400 224.930,298.580 225.200,298.800 225.200 C 299.020 225.200,299.200 224.930,299.200 224.600 C 299.200 224.270,299.020 224.000,298.800 224.000 C 298.580 224.000,298.400 224.270,298.400 224.600 M301.071 225.360 C 300.941 225.698,300.995 226.073,301.190 226.194 C 301.713 226.517,302.156 225.596,301.698 225.138 C 301.442 224.882,301.224 224.959,301.071 225.360 M303.417 226.372 C 303.144 226.814,303.775 227.292,304.144 226.922 C 304.525 226.542,304.454 226.000,304.024 226.000 C 303.817 226.000,303.544 226.168,303.417 226.372 M156.777 235.034 C 156.468 253.271,156.880 294.454,157.366 293.967 C 157.586 293.746,157.844 237.931,157.644 233.734 C 157.387 228.329,156.878 229.093,156.777 235.034 M352.991 258.391 C 353.385 258.825,353.908 259.055,354.153 258.900 C 354.439 258.720,354.348 258.569,353.900 258.480 C 353.515 258.404,353.200 258.175,353.200 257.971 C 353.200 257.767,352.992 257.600,352.738 257.600 C 352.474 257.600,352.583 257.939,352.991 258.391 M120.937 276.200 C 120.939 277.960,121.009 278.630,121.093 277.689 C 121.178 276.749,121.177 275.309,121.091 274.489 C 121.005 273.670,120.936 274.440,120.937 276.200 M243.600 274.771 C 243.600 274.975,243.285 275.224,242.900 275.324 C 242.515 275.425,243.415 275.528,244.900 275.554 C 247.054 275.591,247.600 275.479,247.600 275.000 C 247.600 274.547,247.111 274.400,245.600 274.400 C 244.500 274.400,243.600 274.567,243.600 274.771 M239.200 275.200 C 239.200 275.420,239.470 275.600,239.800 275.600 C 240.130 275.600,240.400 275.420,240.400 275.200 C 240.400 274.980,240.130 274.800,239.800 274.800 C 239.470 274.800,239.200 274.980,239.200 275.200 M269.078 275.456 C 268.624 275.909,269.220 276.400,270.224 276.400 C 270.825 276.400,271.200 276.169,271.200 275.800 C 271.200 275.201,269.593 274.941,269.078 275.456 M274.400 276.600 C 274.400 276.930,274.580 277.200,274.800 277.200 C 275.020 277.200,275.200 276.930,275.200 276.600 C 275.200 276.270,275.020 276.000,274.800 276.000 C 274.580 276.000,274.400 276.270,274.400 276.600 M120.937 288.600 C 120.939 290.360,121.009 291.030,121.093 290.089 C 121.178 289.149,121.177 287.709,121.091 286.889 C 121.005 286.070,120.936 286.840,120.937 288.600 M120.937 295.400 C 120.939 297.160,121.009 297.830,121.093 296.889 C 121.178 295.949,121.177 294.509,121.091 293.689 C 121.005 292.870,120.936 293.640,120.937 295.400 M371.700 293.865 C 370.837 294.213,371.141 295.202,372.100 295.168 C 372.595 295.151,372.785 295.049,372.522 294.943 C 372.260 294.836,372.144 294.490,372.265 294.174 C 372.500 293.564,372.477 293.551,371.700 293.865 M371.800 298.400 C 371.470 298.934,371.913 299.600,372.599 299.600 C 372.904 299.600,373.123 299.242,373.090 298.800 C 373.027 297.962,372.224 297.713,371.800 298.400 M120.937 301.800 C 120.939 303.560,121.009 304.230,121.093 303.289 C 121.178 302.349,121.177 300.909,121.091 300.089 C 121.005 299.270,120.936 300.040,120.937 301.800 M372.800 303.600 C 372.800 303.820,373.070 304.000,373.400 304.000 C 373.730 304.000,374.000 303.820,374.000 303.600 C 374.000 303.380,373.730 303.200,373.400 303.200 C 373.070 303.200,372.800 303.380,372.800 303.600 M304.300 307.459 C 304.575 307.573,304.800 307.937,304.800 308.267 C 304.800 308.597,305.025 308.792,305.300 308.700 C 306.180 308.407,305.835 307.484,304.800 307.365 C 304.250 307.302,304.025 307.344,304.300 307.459 M54.000 316.357 C 54.000 321.552,54.146 324.757,54.376 324.615 C 54.803 324.351,54.704 308.571,54.273 308.140 C 54.123 307.989,54.000 311.687,54.000 316.357 M373.300 326.223 C 372.711 326.863,372.662 327.200,373.157 327.200 C 373.498 327.200,374.137 325.996,373.909 325.783 C 373.849 325.727,373.575 325.925,373.300 326.223 M371.877 331.344 C 371.744 331.690,371.948 331.998,372.385 332.112 C 372.884 332.243,373.086 332.104,373.023 331.673 C 372.899 330.834,372.155 330.619,371.877 331.344 M371.200 335.413 C 371.200 336.060,371.825 336.207,372.174 335.642 C 372.296 335.445,372.126 335.181,371.798 335.054 C 371.435 334.915,371.200 335.056,371.200 335.413 M369.462 340.983 C 369.292 341.426,369.476 341.598,370.113 341.594 C 370.601 341.591,370.820 341.453,370.600 341.289 C 370.380 341.125,370.087 340.850,369.949 340.678 C 369.812 340.506,369.592 340.643,369.462 340.983 M54.000 353.976 C 54.000 357.796,54.160 360.452,54.400 360.600 C 54.661 360.761,54.800 358.537,54.800 354.224 C 54.800 350.075,54.651 347.600,54.400 347.600 C 54.150 347.600,54.000 349.992,54.000 353.976 M156.855 352.895 C 156.802 353.833,156.740 354.870,156.717 355.200 C 156.621 356.551,156.827 357.258,157.273 357.109 C 157.586 357.005,157.711 356.081,157.645 354.376 C 157.527 351.390,156.995 350.391,156.855 352.895 M276.800 354.200 C 276.800 354.533,277.156 354.800,277.600 354.800 C 278.554 354.800,278.661 354.186,277.767 353.843 C 276.873 353.500,276.800 353.527,276.800 354.200 M272.400 355.000 C 272.400 355.423,272.828 355.600,273.849 355.600 C 275.092 355.600,275.227 355.515,274.800 355.000 C 274.526 354.670,273.874 354.400,273.351 354.400 C 272.772 354.400,272.400 354.635,272.400 355.000 M248.717 355.416 C 248.634 355.499,246.427 355.594,243.812 355.627 C 240.074 355.675,239.222 355.784,239.828 356.139 C 241.403 357.058,268.043 356.710,267.115 355.782 C 266.871 355.537,248.952 355.182,248.717 355.416 M350.800 373.800 C 350.283 374.350,350.072 374.800,350.330 374.800 C 350.589 374.800,350.800 374.640,350.800 374.443 C 350.800 374.247,351.250 373.974,351.800 373.836 C 352.350 373.698,352.800 373.408,352.800 373.192 C 352.800 372.470,351.749 372.790,350.800 373.800 M53.923 386.900 C 53.800 398.169,53.868 399.637,54.441 398.173 C 54.891 397.023,54.874 375.600,54.423 375.600 C 54.199 375.600,53.996 380.184,53.923 386.900 M344.800 380.000 C 344.483 380.196,344.356 380.489,344.518 380.652 C 344.681 380.814,345.023 380.737,345.280 380.480 C 345.884 379.876,345.547 379.538,344.800 380.000 M303.200 402.586 C 303.200 402.688,303.556 402.962,303.991 403.195 C 304.636 403.541,304.739 403.506,304.548 403.009 C 304.341 402.469,303.200 402.111,303.200 402.586 M301.010 403.183 C 300.845 403.451,300.907 403.867,301.148 404.108 C 301.763 404.723,302.152 404.200,301.692 403.379 C 301.412 402.879,301.231 402.827,301.010 403.183 M294.000 405.157 C 294.000 405.354,294.270 405.618,294.600 405.745 C 294.965 405.885,295.200 405.745,295.200 405.387 C 295.200 405.064,294.930 404.800,294.600 404.800 C 294.270 404.800,294.000 404.961,294.000 405.157 M285.001 406.399 C 284.652 406.963,285.092 407.545,285.790 407.443 C 286.794 407.295,286.903 406.883,286.059 406.431 C 285.523 406.145,285.164 406.134,285.001 406.399 M278.400 407.557 C 278.400 407.914,279.341 408.400,280.033 408.400 C 280.235 408.400,280.400 408.130,280.400 407.800 C 280.400 407.427,280.022 407.200,279.400 407.200 C 278.850 407.200,278.400 407.361,278.400 407.557 M270.900 407.898 C 270.625 407.991,270.400 408.232,270.400 408.433 C 270.400 408.904,272.282 408.914,272.572 408.445 C 272.825 408.036,271.641 407.649,270.900 407.898 M231.489 409.102 C 231.109 409.522,230.910 409.977,231.047 410.113 C 231.392 410.458,232.497 409.290,232.322 408.766 C 232.242 408.526,231.876 408.674,231.489 409.102 M156.600 409.032 C 156.865 409.143,156.959 430.898,156.879 473.500 C 156.813 508.865,156.885 538.610,157.041 539.600 L 157.323 541.400 157.648 540.000 C 158.172 537.746,158.068 409.964,157.542 409.330 C 157.300 409.039,156.899 408.814,156.651 408.832 C 156.390 408.850,156.369 408.934,156.600 409.032 M157.129 543.000 C 156.686 543.721,156.733 553.912,157.181 554.188 C 157.411 554.331,157.612 554.392,157.627 554.324 C 158.187 551.769,157.756 541.979,157.129 543.000 M157.271 565.000 C 157.227 565.660,157.080 566.920,156.944 567.800 C 156.754 569.023,156.808 569.296,157.170 568.958 C 157.467 568.681,157.589 567.638,157.497 566.158 C 157.417 564.861,157.315 564.340,157.271 565.000 M157.867 576.267 C 157.038 577.095,158.571 577.230,168.300 577.181 C 179.188 577.127,181.362 576.985,180.972 576.354 C 180.720 575.947,158.271 575.862,157.867 576.267 M198.000 577.427 C 198.000 577.871,198.311 578.016,199.069 577.927 C 200.626 577.742,200.764 576.800,199.233 576.800 C 198.380 576.800,198.000 576.993,198.000 577.427 M224.700 577.887 C 222.241 578.259,223.840 578.800,227.400 578.800 C 231.000 578.800,232.278 578.382,230.300 577.852 C 229.340 577.595,226.511 577.612,224.700 577.887 " stroke="none" fill="#b4a785" fill-rule="evenodd"></path><path id="path2" d="M59.105 31.083 C 59.602 31.179,60.322 31.175,60.705 31.075 C 61.087 30.975,60.680 30.896,59.800 30.901 C 58.920 30.905,58.607 30.987,59.105 31.083 M72.105 31.087 C 72.714 31.179,73.614 31.177,74.105 31.082 C 74.597 30.987,74.100 30.911,73.000 30.914 C 71.900 30.917,71.497 30.995,72.105 31.087 M95.174 31.213 C 97.470 31.374,103.770 31.377,109.174 31.218 L 119.000 30.929 105.000 30.924 C 95.561 30.920,92.360 31.014,95.174 31.213 M120.509 37.200 C 120.509 38.190,120.587 38.595,120.682 38.100 C 120.778 37.605,120.778 36.795,120.682 36.300 C 120.587 35.805,120.509 36.210,120.509 37.200 M120.901 41.800 C 120.905 42.680,120.987 42.993,121.083 42.495 C 121.179 41.998,121.175 41.278,121.075 40.895 C 120.975 40.513,120.896 40.920,120.901 41.800 M120.654 51.056 C 120.312 53.554,120.333 55.913,120.700 56.133 C 120.865 56.232,121.037 54.712,121.083 52.756 C 121.175 48.806,121.037 48.261,120.654 51.056 M120.914 58.600 C 120.917 59.700,120.995 60.103,121.087 59.495 C 121.179 58.886,121.177 57.986,121.082 57.495 C 120.987 57.003,120.911 57.500,120.914 58.600 M120.470 73.700 C 120.431 76.505,120.535 78.800,120.700 78.801 C 120.865 78.801,120.952 77.226,120.893 75.301 C 120.703 69.087,120.541 68.476,120.470 73.700 M120.901 91.400 C 120.905 92.280,120.987 92.593,121.083 92.095 C 121.179 91.598,121.175 90.878,121.075 90.495 C 120.975 90.113,120.896 90.520,120.901 91.400 M120.937 96.200 C 120.939 97.960,121.009 98.630,121.093 97.689 C 121.178 96.749,121.177 95.309,121.091 94.489 C 121.005 93.670,120.936 94.440,120.937 96.200 M120.657 105.259 C 120.354 108.154,120.330 109.403,120.582 109.151 C 120.839 108.895,121.343 102.800,121.108 102.800 C 121.001 102.800,120.798 103.906,120.657 105.259 M120.914 113.400 C 120.917 114.500,120.995 114.903,121.087 114.295 C 121.179 113.686,121.177 112.786,121.082 112.295 C 120.987 111.803,120.911 112.300,120.914 113.400 M120.901 119.400 C 120.905 120.280,120.987 120.593,121.083 120.095 C 121.179 119.598,121.175 118.878,121.075 118.495 C 120.975 118.113,120.896 118.520,120.901 119.400 M120.345 146.300 C 120.015 149.394,120.283 221.198,120.642 225.800 L 121.016 230.600 121.355 227.500 C 121.541 225.795,121.855 224.400,122.052 224.400 C 122.702 224.400,121.919 146.053,121.257 144.900 C 120.949 144.362,120.474 145.091,120.345 146.300 M52.899 164.080 C 52.371 164.717,52.467 390.152,53.000 402.797 C 53.189 407.285,53.377 408.667,53.831 408.921 C 54.153 409.102,54.295 409.446,54.147 409.686 C 53.985 409.949,54.061 410.009,54.338 409.838 C 54.592 409.681,54.800 409.728,54.800 409.942 C 54.800 410.746,61.396 410.883,107.700 411.043 L 155.200 411.206 155.257 418.703 C 155.288 422.826,155.423 458.096,155.557 497.080 C 155.747 552.539,155.908 568.068,156.294 568.454 C 156.686 568.846,156.790 552.525,156.797 489.343 L 156.806 409.738 155.898 409.253 C 155.197 408.877,143.566 408.793,104.719 408.883 L 54.447 409.000 54.217 404.800 C 54.091 402.490,53.898 347.500,53.790 282.600 C 53.577 155.528,53.635 163.192,52.899 164.080 M158.000 218.139 C 157.450 218.428,157.045 218.876,157.100 219.133 C 157.155 219.390,156.973 219.600,156.695 219.600 C 156.417 219.600,156.012 220.005,155.795 220.500 C 155.578 220.995,155.018 221.568,154.551 221.773 C 152.950 222.476,152.609 223.600,153.997 223.600 C 155.067 223.600,155.200 223.733,155.200 224.800 C 155.200 225.460,155.380 226.000,155.600 226.000 C 155.849 226.000,156.000 228.259,156.000 231.976 C 156.000 235.529,155.838 238.053,155.600 238.200 C 155.346 238.357,155.200 243.330,155.200 251.800 C 155.200 260.270,155.346 265.243,155.600 265.400 C 156.121 265.722,156.155 352.879,155.634 353.420 C 155.432 353.629,155.207 354.245,155.134 354.790 C 155.060 355.334,154.584 355.986,154.076 356.239 L 153.152 356.698 154.176 356.893 C 156.809 357.397,156.600 363.239,156.600 289.132 C 156.600 245.178,156.737 221.994,157.000 221.600 C 157.220 221.270,157.400 220.658,157.400 220.240 C 157.400 219.525,157.735 219.485,163.027 219.566 C 166.820 219.623,169.493 219.460,171.227 219.065 C 173.891 218.458,198.912 218.328,199.864 218.916 C 200.689 219.426,212.793 219.367,213.309 218.851 C 213.688 218.472,213.664 218.285,213.197 217.989 C 212.189 217.353,159.220 217.496,158.000 218.139 M286.000 221.439 C 286.000 221.904,286.168 221.938,286.800 221.600 C 287.240 221.365,287.600 221.126,287.600 221.071 C 287.600 221.016,287.240 220.943,286.800 220.910 C 286.335 220.875,286.000 221.096,286.000 221.439 M290.000 222.061 C 290.000 222.510,291.249 222.483,291.984 222.018 C 292.408 221.750,292.216 221.659,291.284 221.685 C 290.578 221.705,290.000 221.874,290.000 222.061 M293.200 222.758 C 293.200 223.299,293.660 223.552,294.239 223.330 C 295.054 223.017,294.926 222.580,294.000 222.510 C 293.560 222.477,293.200 222.589,293.200 222.758 M296.400 223.600 C 296.400 223.820,296.659 224.000,296.976 224.000 C 297.293 224.000,297.664 223.820,297.800 223.600 C 297.936 223.380,297.677 223.200,297.224 223.200 C 296.771 223.200,296.400 223.380,296.400 223.600 M299.600 224.680 C 299.600 224.966,299.746 225.200,299.924 225.200 C 300.101 225.200,300.567 224.966,300.958 224.680 C 301.609 224.204,301.582 224.160,300.635 224.160 C 300.052 224.160,299.600 224.387,299.600 224.680 M302.400 225.403 C 302.400 225.731,302.670 226.000,303.000 226.000 C 303.330 226.000,303.600 225.809,303.600 225.576 C 303.600 225.343,303.825 225.282,304.100 225.441 C 304.375 225.599,304.460 225.575,304.290 225.387 C 303.723 224.764,302.400 224.775,302.400 225.403 M305.200 226.249 C 305.200 226.780,305.309 226.808,305.800 226.400 C 306.130 226.126,306.400 225.834,306.400 225.751 C 306.400 225.668,306.130 225.600,305.800 225.600 C 305.470 225.600,305.200 225.892,305.200 226.249 M306.881 226.727 C 307.042 227.564,308.400 227.876,308.400 227.076 C 308.400 226.756,308.030 226.396,307.577 226.278 C 306.963 226.117,306.786 226.232,306.881 226.727 M309.200 227.829 C 309.200 228.202,309.472 228.406,309.867 228.329 C 310.870 228.135,311.008 227.200,310.033 227.200 C 309.542 227.200,309.200 227.458,309.200 227.829 M153.067 227.867 C 152.636 228.297,152.759 233.200,153.200 233.200 C 153.429 233.200,153.600 232.000,153.600 230.400 C 153.600 227.585,153.556 227.377,153.067 227.867 M311.600 228.633 C 311.600 228.982,311.814 229.195,312.075 229.108 C 312.817 228.861,312.940 228.000,312.233 228.000 C 311.885 228.000,311.600 228.285,311.600 228.633 M313.200 229.400 C 313.200 229.851,313.481 230.016,314.100 229.928 C 314.595 229.858,315.000 229.620,315.000 229.400 C 315.000 229.180,314.595 228.942,314.100 228.872 C 313.481 228.784,313.200 228.949,313.200 229.400 M315.600 230.233 C 315.600 230.582,315.814 230.795,316.075 230.708 C 316.817 230.461,316.940 229.600,316.233 229.600 C 315.885 229.600,315.600 229.885,315.600 230.233 M317.200 231.000 C 317.200 231.412,317.462 231.608,317.900 231.524 C 318.743 231.361,318.690 230.652,317.821 230.471 C 317.459 230.395,317.200 230.616,317.200 231.000 M319.067 231.467 C 318.560 231.974,318.803 232.400,319.600 232.400 C 320.040 232.400,320.400 232.580,320.400 232.800 C 320.400 233.020,320.760 233.200,321.200 233.200 C 321.640 233.200,322.000 233.380,322.000 233.600 C 322.000 233.820,322.360 234.000,322.800 234.000 C 323.240 234.000,323.600 234.180,323.600 234.400 C 323.600 234.620,323.960 234.800,324.400 234.800 C 324.840 234.800,325.200 234.980,325.200 235.200 C 325.200 235.420,325.470 235.600,325.800 235.600 C 327.105 235.600,326.292 234.416,324.400 233.561 C 323.300 233.064,322.400 232.479,322.400 232.262 C 322.400 232.045,322.287 231.979,322.149 232.117 C 322.011 232.255,321.390 232.105,320.769 231.784 C 319.476 231.115,319.427 231.106,319.067 231.467 M153.100 235.030 C 152.663 235.471,152.732 239.200,153.176 239.200 C 153.383 239.200,153.628 239.065,153.720 238.900 C 154.005 238.386,153.417 234.710,153.100 235.030 M326.800 235.800 C 326.800 236.130,327.070 236.400,327.400 236.400 C 327.730 236.400,328.000 236.130,328.000 235.800 C 328.000 235.470,327.730 235.200,327.400 235.200 C 327.070 235.200,326.800 235.470,326.800 235.800 M328.400 236.429 C 328.400 237.031,329.438 238.000,330.083 238.000 C 330.380 238.000,330.883 238.360,331.200 238.800 C 331.517 239.240,332.057 239.600,332.400 239.600 C 332.743 239.600,333.283 239.960,333.600 240.400 C 333.917 240.840,334.454 241.200,334.792 241.200 C 335.131 241.200,335.632 241.560,335.907 242.000 C 336.182 242.440,336.720 242.802,337.103 242.804 C 337.487 242.806,338.225 243.346,338.745 244.004 C 339.265 244.662,339.915 245.200,340.190 245.200 C 340.465 245.200,343.370 247.909,346.645 251.221 C 352.388 257.028,353.840 258.293,354.269 257.864 C 354.535 257.598,342.125 245.200,341.593 245.200 C 341.365 245.200,340.388 244.435,339.421 243.500 C 337.340 241.486,335.530 240.162,335.066 240.314 C 334.883 240.373,334.373 239.966,333.934 239.407 C 333.495 238.849,332.981 238.488,332.793 238.605 C 332.604 238.721,332.264 238.498,332.037 238.108 C 331.810 237.719,331.619 237.548,331.612 237.729 C 331.605 237.909,331.336 237.819,331.014 237.529 C 329.199 235.891,328.400 235.555,328.400 236.429 M123.903 295.300 C 123.846 327.475,123.809 353.839,123.820 353.886 C 123.831 353.934,130.539 353.991,138.728 354.014 L 153.616 354.056 153.612 307.028 C 153.609 281.163,153.470 260.000,153.303 260.000 C 153.137 260.000,152.954 280.970,152.898 306.600 L 152.797 353.200 138.798 353.200 L 124.800 353.200 124.800 295.000 C 124.800 256.726,124.664 236.800,124.403 236.800 C 124.142 236.800,123.970 256.896,123.903 295.300 M152.000 249.376 C 152.000 255.196,152.152 258.847,152.400 259.000 C 152.662 259.162,152.800 255.937,152.800 249.624 C 152.800 243.475,152.656 240.000,152.400 240.000 C 152.145 240.000,152.000 243.392,152.000 249.376 M354.400 259.220 C 354.400 259.677,356.918 262.400,357.340 262.400 C 357.969 262.400,357.494 261.467,356.213 260.187 C 354.749 258.723,354.400 258.536,354.400 259.220 M357.420 263.168 C 357.295 263.370,357.659 263.903,358.230 264.352 C 358.800 264.801,359.171 265.323,359.054 265.513 C 358.937 265.702,359.194 266.159,359.625 266.529 C 360.590 267.355,360.800 267.368,360.800 266.600 C 360.800 266.270,360.620 266.000,360.400 266.000 C 360.180 266.000,360.000 265.722,360.000 265.382 C 360.000 264.268,357.869 262.440,357.420 263.168 M360.800 268.200 C 360.800 268.530,360.980 268.800,361.200 268.800 C 361.420 268.800,361.600 269.160,361.600 269.600 C 361.600 270.040,361.736 270.400,361.902 270.400 C 362.069 270.400,362.444 270.940,362.736 271.600 C 363.299 272.871,364.000 273.204,364.000 272.200 C 364.000 271.870,363.820 271.600,363.600 271.600 C 363.380 271.600,363.200 271.240,363.200 270.800 C 363.200 270.360,363.020 270.000,362.800 270.000 C 362.580 270.000,362.400 269.717,362.400 269.371 C 362.400 268.765,361.498 267.600,361.029 267.600 C 360.903 267.600,360.800 267.870,360.800 268.200 M364.000 273.800 C 364.000 274.130,364.180 274.400,364.400 274.400 C 364.620 274.400,364.800 274.130,364.800 273.800 C 364.800 273.470,364.620 273.200,364.400 273.200 C 364.180 273.200,364.000 273.470,364.000 273.800 M364.800 275.400 C 364.800 275.730,364.980 276.000,365.200 276.000 C 365.420 276.000,365.600 275.730,365.600 275.400 C 365.600 275.070,365.420 274.800,365.200 274.800 C 364.980 274.800,364.800 275.070,364.800 275.400 M231.680 275.680 C 231.100 276.260,231.040 278.000,231.600 278.000 C 231.820 278.000,232.000 277.719,232.000 277.376 C 232.000 277.033,232.142 276.840,232.315 276.948 C 232.488 277.055,232.666 276.705,232.711 276.171 C 232.798 275.110,232.427 274.933,231.680 275.680 M272.200 276.800 C 272.336 277.020,272.797 277.200,273.224 277.200 C 273.651 277.200,274.000 277.020,274.000 276.800 C 274.000 276.580,273.539 276.400,272.976 276.400 C 272.396 276.400,272.060 276.573,272.200 276.800 M365.600 277.000 C 365.600 277.330,365.780 277.600,366.000 277.600 C 366.220 277.600,366.400 277.330,366.400 277.000 C 366.400 276.670,366.220 276.400,366.000 276.400 C 365.780 276.400,365.600 276.670,365.600 277.000 M275.400 277.600 C 275.536 277.820,275.907 278.000,276.224 278.000 C 276.541 278.000,276.800 277.820,276.800 277.600 C 276.800 277.380,276.429 277.200,275.976 277.200 C 275.523 277.200,275.264 277.380,275.400 277.600 M278.500 277.887 C 277.711 278.170,277.918 278.800,278.800 278.800 C 279.240 278.800,279.600 278.631,279.600 278.424 C 279.600 277.912,279.105 277.670,278.500 277.887 M366.400 278.600 C 366.400 278.930,366.580 279.200,366.800 279.200 C 367.020 279.200,367.200 278.930,367.200 278.600 C 367.200 278.270,367.020 278.000,366.800 278.000 C 366.580 278.000,366.400 278.270,366.400 278.600 M280.498 278.666 C 279.867 278.920,280.250 279.600,281.024 279.600 C 281.341 279.600,281.600 279.330,281.600 279.000 C 281.600 278.383,281.371 278.314,280.498 278.666 M367.200 280.575 C 367.200 281.270,367.408 281.535,367.925 281.496 C 368.534 281.450,368.582 281.295,368.225 280.524 C 367.670 279.326,367.200 279.350,367.200 280.575 M283.600 280.800 C 283.600 281.020,283.870 281.200,284.200 281.200 C 284.530 281.200,284.800 281.020,284.800 280.800 C 284.800 280.580,284.530 280.400,284.200 280.400 C 283.870 280.400,283.600 280.580,283.600 280.800 M285.700 281.065 C 285.004 281.346,285.073 282.000,285.800 282.000 C 286.130 282.000,286.400 281.730,286.400 281.400 C 286.400 281.070,286.355 280.814,286.300 280.832 C 286.245 280.849,285.975 280.954,285.700 281.065 M287.033 281.947 C 286.734 282.430,288.258 283.735,288.760 283.425 C 289.011 283.270,288.865 282.865,288.385 282.385 C 287.505 281.505,287.339 281.451,287.033 281.947 M368.000 282.429 C 368.000 282.901,369.158 284.183,369.372 283.948 C 369.446 283.866,369.354 283.395,369.166 282.900 C 368.819 281.983,368.000 281.651,368.000 282.429 M289.384 283.627 C 289.239 283.861,289.453 284.306,289.860 284.614 C 291.189 285.621,291.638 285.211,290.643 283.900 C 290.029 283.091,289.752 283.031,289.384 283.627 M368.800 285.000 C 368.800 285.330,369.040 285.600,369.333 285.600 C 369.627 285.600,369.867 285.330,369.867 285.000 C 369.867 284.670,369.627 284.400,369.333 284.400 C 369.040 284.400,368.800 284.670,368.800 285.000 M291.000 285.600 C 290.864 285.820,291.033 286.000,291.376 286.000 C 291.718 286.000,292.763 286.720,293.697 287.600 C 294.631 288.480,295.542 289.200,295.721 289.200 C 295.901 289.200,295.919 289.408,295.762 289.662 C 295.580 289.955,295.653 290.015,295.960 289.825 C 296.520 289.479,295.626 287.866,294.233 286.707 C 293.775 286.326,293.183 285.831,292.917 285.607 C 292.300 285.087,291.319 285.083,291.000 285.600 M369.600 287.867 C 369.600 288.570,369.822 288.798,370.500 288.794 C 371.020 288.790,371.213 288.664,370.957 288.494 C 370.713 288.332,370.557 287.915,370.611 287.567 C 370.665 287.218,370.460 286.933,370.155 286.933 C 369.840 286.933,369.600 287.337,369.600 287.867 M370.900 289.465 C 370.195 289.749,370.275 291.200,370.996 291.200 C 371.386 291.200,371.563 290.856,371.508 290.200 C 371.463 289.650,371.420 289.214,371.413 289.232 C 371.406 289.249,371.175 289.354,370.900 289.465 M296.400 290.652 C 296.400 290.790,297.039 291.645,297.820 292.552 C 299.912 294.980,300.000 295.110,300.000 295.783 C 300.000 296.122,300.180 296.400,300.400 296.400 C 300.620 296.400,300.800 296.760,300.800 297.200 C 300.800 297.640,300.980 298.000,301.200 298.000 C 301.420 298.000,301.600 298.360,301.600 298.800 C 301.600 299.240,301.780 299.600,302.000 299.600 C 302.220 299.600,302.400 299.960,302.400 300.400 C 302.400 300.840,302.580 301.200,302.800 301.200 C 303.020 301.200,303.200 300.840,303.200 300.400 C 303.200 299.960,303.020 299.600,302.800 299.600 C 302.580 299.600,302.400 299.366,302.400 299.080 C 302.400 298.344,301.459 296.407,301.100 296.403 C 300.935 296.401,300.800 296.042,300.800 295.603 C 300.800 295.165,300.440 294.582,300.000 294.307 C 299.560 294.032,299.200 293.536,299.200 293.204 C 299.199 292.460,297.475 290.400,296.853 290.400 C 296.604 290.400,296.400 290.513,296.400 290.652 M371.759 291.900 C 371.918 292.175,371.857 292.400,371.624 292.400 C 371.391 292.400,371.200 292.670,371.200 293.000 C 371.200 293.330,371.469 293.600,371.797 293.600 C 372.425 293.600,372.436 292.277,371.813 291.710 C 371.625 291.540,371.601 291.625,371.759 291.900 M372.256 296.278 C 371.778 296.756,371.998 297.600,372.600 297.600 C 372.930 297.600,373.200 297.341,373.200 297.024 C 373.200 296.355,372.629 295.904,372.256 296.278 M373.600 300.767 C 373.600 301.188,373.375 301.617,373.100 301.719 C 372.720 301.860,372.744 302.055,373.200 302.534 C 373.739 303.099,373.809 303.002,373.891 301.582 C 373.941 300.712,373.896 300.000,373.791 300.000 C 373.686 300.000,373.600 300.345,373.600 300.767 M303.200 302.800 C 303.200 303.240,303.380 303.600,303.600 303.600 C 303.820 303.600,304.000 303.240,304.000 302.800 C 304.000 302.360,303.820 302.000,303.600 302.000 C 303.380 302.000,303.200 302.360,303.200 302.800 M231.463 303.070 C 230.975 303.558,231.178 331.261,231.668 330.958 C 232.001 330.752,232.099 302.811,231.767 302.801 C 231.748 302.800,231.612 302.921,231.463 303.070 M304.000 305.800 C 304.000 306.130,304.180 306.400,304.400 306.400 C 304.620 306.400,304.800 306.130,304.800 305.800 C 304.800 305.470,304.620 305.200,304.400 305.200 C 304.180 305.200,304.000 305.470,304.000 305.800 M120.800 309.000 C 120.800 309.596,120.972 309.941,121.200 309.800 C 121.420 309.664,121.600 309.304,121.600 309.000 C 121.600 308.696,121.420 308.336,121.200 308.200 C 120.972 308.059,120.800 308.404,120.800 309.000 M374.520 315.600 C 374.520 316.810,374.595 317.305,374.687 316.700 C 374.778 316.095,374.778 315.105,374.687 314.500 C 374.595 313.895,374.520 314.390,374.520 315.600 M304.000 325.600 C 304.000 326.040,304.180 326.400,304.400 326.400 C 304.620 326.400,304.800 326.040,304.800 325.600 C 304.800 325.160,304.620 324.800,304.400 324.800 C 304.180 324.800,304.000 325.160,304.000 325.600 M303.412 328.117 C 303.241 328.512,303.213 328.947,303.351 329.084 C 303.757 329.490,304.084 328.920,303.897 328.131 C 303.732 327.433,303.710 327.432,303.412 328.117 M372.800 328.200 C 372.800 328.530,372.967 328.800,373.171 328.800 C 373.375 328.800,373.624 329.115,373.724 329.500 C 373.825 329.885,373.928 329.615,373.954 328.900 C 373.986 327.990,373.820 327.600,373.400 327.600 C 373.070 327.600,372.800 327.870,372.800 328.200 M302.400 330.400 C 302.400 330.840,302.220 331.200,302.000 331.200 C 301.780 331.200,301.600 331.560,301.600 332.000 C 301.600 332.440,301.420 332.800,301.200 332.800 C 300.980 332.800,300.800 333.160,300.800 333.600 C 300.800 334.040,300.620 334.400,300.400 334.400 C 300.180 334.400,300.000 334.760,300.000 335.200 C 300.000 335.640,299.820 336.000,299.600 336.000 C 299.380 336.000,299.200 336.239,299.200 336.530 C 299.200 336.822,298.750 337.483,298.200 338.000 C 297.650 338.517,297.200 339.178,297.200 339.470 C 297.200 339.761,297.032 340.000,296.827 340.000 C 296.622 340.000,296.336 340.373,296.191 340.829 C 296.045 341.290,295.696 341.569,295.406 341.458 C 294.937 341.278,292.874 343.032,293.089 343.428 C 293.354 343.914,292.608 344.800,291.934 344.800 C 291.504 344.800,291.255 344.965,291.380 345.168 C 291.505 345.370,291.324 345.819,290.978 346.165 C 290.632 346.511,290.462 346.977,290.601 347.202 C 290.740 347.426,292.632 345.866,294.807 343.734 C 296.981 341.603,298.664 339.703,298.546 339.513 C 298.429 339.323,298.790 338.808,299.348 338.369 C 299.941 337.903,300.270 337.327,300.139 336.985 C 300.015 336.663,300.114 336.400,300.357 336.400 C 300.601 336.400,300.800 336.040,300.800 335.600 C 300.800 335.160,300.980 334.800,301.200 334.800 C 301.420 334.800,301.600 334.440,301.600 334.000 C 301.600 333.560,301.780 333.200,302.000 333.200 C 302.220 333.200,302.400 332.859,302.400 332.443 C 302.400 332.026,302.656 331.587,302.969 331.467 C 303.317 331.334,303.454 330.929,303.322 330.424 C 303.046 329.369,302.400 329.352,302.400 330.400 M372.000 333.233 C 372.000 334.208,372.935 334.070,373.129 333.067 C 373.206 332.672,373.002 332.400,372.629 332.400 C 372.258 332.400,372.000 332.742,372.000 333.233 M231.200 341.400 C 231.200 344.150,231.349 346.400,231.531 346.400 C 231.713 346.400,231.874 344.150,231.890 341.400 C 231.906 338.650,231.757 336.400,231.559 336.400 C 231.362 336.400,231.200 338.650,231.200 341.400 M371.200 337.000 C 371.200 337.330,371.470 337.600,371.800 337.600 C 372.130 337.600,372.400 337.330,372.400 337.000 C 372.400 336.670,372.130 336.400,371.800 336.400 C 371.470 336.400,371.200 336.670,371.200 337.000 M120.961 343.600 C 120.961 347.010,121.022 348.405,121.097 346.700 C 121.172 344.995,121.172 342.205,121.097 340.500 C 121.022 338.795,120.961 340.190,120.961 343.600 M370.842 339.566 C 370.535 339.760,370.394 340.207,370.529 340.560 C 370.898 341.521,371.415 341.331,371.508 340.200 C 371.601 339.075,371.607 339.081,370.842 339.566 M369.600 342.395 C 369.600 342.649,369.871 343.128,370.202 343.459 C 370.738 343.996,370.789 343.962,370.666 343.152 C 370.523 342.219,369.600 341.564,369.600 342.395 M368.919 345.776 C 369.095 346.862,369.021 347.106,368.571 346.934 C 368.166 346.778,368.000 347.018,368.000 347.757 C 368.000 348.331,367.820 348.800,367.600 348.800 C 367.380 348.800,367.200 349.160,367.200 349.600 C 367.200 350.963,367.789 350.491,368.891 348.244 C 369.510 346.981,369.857 345.738,369.727 345.244 C 369.357 343.828,368.675 344.277,368.919 345.776 M288.800 347.643 C 288.800 347.886,288.530 347.982,288.200 347.855 C 287.835 347.715,287.600 347.855,287.600 348.213 C 287.600 348.536,287.240 348.800,286.800 348.800 C 286.360 348.800,286.000 348.980,286.000 349.200 C 286.000 349.420,285.640 349.600,285.200 349.600 C 284.760 349.600,284.400 349.780,284.400 350.000 C 284.400 350.220,284.040 350.400,283.600 350.400 C 283.160 350.400,282.799 350.535,282.797 350.700 C 282.793 351.116,280.804 352.000,279.871 352.000 C 279.233 352.000,279.187 352.102,279.600 352.600 C 280.243 353.374,281.160 353.368,281.460 352.588 C 281.608 352.202,281.972 352.064,282.447 352.215 C 282.975 352.382,283.200 352.258,283.200 351.800 C 283.200 351.342,283.425 351.218,283.953 351.385 C 284.428 351.536,284.792 351.398,284.940 351.012 C 285.069 350.675,285.451 350.400,285.787 350.400 C 286.124 350.400,286.400 350.220,286.400 350.000 C 286.400 349.780,286.753 349.600,287.184 349.600 C 287.616 349.600,288.336 349.206,288.784 348.725 C 289.672 347.772,289.828 347.200,289.200 347.200 C 288.980 347.200,288.800 347.399,288.800 347.643 M231.265 352.208 C 231.245 353.193,231.403 354.000,231.615 354.000 C 231.827 354.000,232.000 354.382,232.000 354.850 C 232.000 355.601,232.151 355.667,233.300 355.412 C 234.015 355.254,242.835 355.154,252.900 355.191 C 265.525 355.238,271.200 355.127,271.200 354.836 C 271.200 354.545,265.318 354.414,252.342 354.416 C 231.561 354.419,232.000 354.472,232.000 351.962 C 232.000 350.070,231.303 350.303,231.265 352.208 M366.400 351.600 C 366.400 352.040,366.220 352.400,366.000 352.400 C 365.780 352.400,365.600 352.760,365.600 353.200 C 365.600 353.640,365.420 354.000,365.200 354.000 C 364.980 354.000,364.800 354.360,364.800 354.800 C 364.800 355.240,364.620 355.600,364.400 355.600 C 364.180 355.600,364.000 355.941,364.000 356.357 C 364.000 356.774,363.733 357.217,363.407 357.342 C 363.069 357.472,362.915 357.835,363.050 358.185 C 363.179 358.523,363.086 358.800,362.843 358.800 C 362.599 358.800,362.400 359.070,362.400 359.400 C 362.400 359.730,362.503 360.000,362.629 360.000 C 363.098 360.000,364.000 358.835,364.000 358.229 C 364.000 357.883,364.180 357.600,364.400 357.600 C 364.620 357.600,364.800 357.240,364.800 356.800 C 364.800 356.360,364.980 356.000,365.200 356.000 C 365.420 356.000,365.600 355.640,365.600 355.200 C 365.600 354.760,365.780 354.400,366.000 354.400 C 366.220 354.400,366.400 354.040,366.400 353.600 C 366.400 353.160,366.541 352.800,366.713 352.800 C 366.885 352.800,367.063 352.350,367.108 351.800 C 367.154 351.250,367.013 350.800,366.796 350.800 C 366.578 350.800,366.400 351.160,366.400 351.600 M277.600 353.200 C 277.087 353.531,277.102 353.589,277.700 353.594 C 278.085 353.597,278.531 353.613,278.690 353.630 C 278.850 353.647,279.045 353.466,279.123 353.230 C 279.301 352.697,278.406 352.679,277.600 353.200 M273.346 354.087 C 273.240 354.259,273.793 354.400,274.576 354.400 C 275.359 354.400,276.000 354.217,276.000 353.994 C 276.000 353.529,273.639 353.613,273.346 354.087 M121.225 355.276 C 121.199 356.402,121.702 356.926,122.893 357.014 C 123.857 357.085,123.789 356.543,122.801 356.284 C 122.362 356.169,121.833 355.653,121.626 355.138 C 121.252 354.203,121.251 354.203,121.225 355.276 M125.300 357.087 C 125.905 357.178,126.895 357.178,127.500 357.087 C 128.105 356.995,127.610 356.920,126.400 356.920 C 125.190 356.920,124.695 356.995,125.300 357.087 M361.200 361.105 C 360.871 361.476,360.652 362.004,360.715 362.277 C 360.778 362.551,360.463 363.004,360.015 363.284 C 359.284 363.740,358.867 364.800,359.418 364.800 C 359.905 364.800,361.600 362.794,361.600 362.218 C 361.600 361.878,361.780 361.600,362.000 361.600 C 362.220 361.600,362.400 361.330,362.400 361.000 C 362.400 360.221,361.951 360.261,361.200 361.105 M357.900 365.979 C 357.102 366.763,357.005 367.200,357.629 367.200 C 358.322 367.200,359.344 365.981,358.954 365.619 C 358.759 365.438,358.285 365.600,357.900 365.979 M355.400 369.361 C 353.121 371.850,352.691 372.425,352.931 372.664 C 353.202 372.936,357.600 368.551,357.600 368.009 C 357.600 367.243,357.002 367.611,355.400 369.361 M351.000 374.809 C 345.894 379.524,345.473 380.000,346.407 380.000 C 346.814 380.000,352.000 375.000,352.000 374.607 C 352.000 374.287,351.444 374.399,351.000 374.809 M341.494 383.200 C 340.722 384.080,339.830 384.800,339.510 384.800 C 338.692 384.800,336.232 387.592,336.667 388.027 C 337.080 388.440,339.200 386.753,339.200 386.011 C 339.200 385.738,339.450 385.610,339.756 385.728 C 340.228 385.909,344.000 382.412,344.000 381.793 C 344.000 381.105,342.681 381.846,341.494 383.200 M334.500 388.598 C 333.439 389.804,334.291 390.566,335.429 389.429 C 335.743 389.114,336.000 388.664,336.000 388.429 C 336.000 387.822,335.093 387.924,334.500 388.598 M332.100 390.198 C 331.461 390.924,331.456 391.629,332.090 391.500 C 332.764 391.363,333.600 390.548,333.600 390.029 C 333.600 389.422,332.693 389.524,332.100 390.198 M330.000 391.600 C 330.000 391.820,329.640 392.000,329.200 392.000 C 328.760 392.000,328.400 392.180,328.400 392.400 C 328.400 392.620,328.117 392.800,327.771 392.800 C 326.947 392.800,325.880 393.883,326.198 394.397 C 326.565 394.990,327.200 394.887,327.200 394.235 C 327.200 393.923,327.513 393.719,327.900 393.779 C 328.285 393.838,328.692 393.747,328.804 393.575 C 328.916 393.404,329.272 393.205,329.594 393.132 C 330.947 392.828,331.794 391.200,330.600 391.200 C 330.270 391.200,330.000 391.380,330.000 391.600 M324.400 394.800 C 324.400 395.020,324.166 395.200,323.880 395.200 C 323.594 395.200,322.875 395.425,322.283 395.700 C 321.126 396.237,320.816 397.200,321.800 397.200 C 322.130 397.200,322.400 397.020,322.400 396.800 C 322.400 396.580,322.745 396.400,323.167 396.400 C 323.588 396.400,323.996 396.212,324.073 395.982 C 324.149 395.752,324.605 395.535,325.086 395.499 C 325.751 395.449,325.857 395.310,325.531 394.916 C 325.021 394.302,324.400 394.238,324.400 394.800 M318.800 397.200 C 318.800 397.420,318.440 397.600,318.000 397.600 C 317.560 397.600,317.200 397.780,317.200 398.000 C 317.200 398.220,316.840 398.400,316.400 398.400 C 315.956 398.400,315.600 398.667,315.600 399.000 C 315.600 399.373,315.978 399.600,316.600 399.600 C 317.150 399.600,317.600 399.420,317.600 399.200 C 317.600 398.980,317.960 398.800,318.400 398.800 C 318.840 398.800,319.200 398.620,319.200 398.400 C 319.200 398.180,319.470 398.000,319.800 398.000 C 320.130 398.000,320.400 397.730,320.400 397.400 C 320.400 397.067,320.044 396.800,319.600 396.800 C 319.160 396.800,318.800 396.980,318.800 397.200 M313.767 399.741 C 313.641 400.071,313.179 400.209,312.580 400.094 C 311.867 399.958,311.600 400.083,311.600 400.553 C 311.600 401.263,312.996 401.454,313.400 400.800 C 313.536 400.580,313.991 400.400,314.411 400.400 C 314.926 400.400,315.100 400.204,314.945 399.800 C 314.658 399.053,314.043 399.022,313.767 399.741 M309.467 401.067 C 308.925 401.608,309.227 402.000,310.187 402.000 C 310.901 402.000,311.111 401.833,310.945 401.400 C 310.706 400.778,309.931 400.603,309.467 401.067 M307.097 402.349 C 306.947 402.926,307.074 403.053,307.651 402.903 C 308.514 402.677,308.676 401.600,307.847 401.600 C 307.542 401.600,307.205 401.937,307.097 402.349 M304.701 403.299 C 304.197 404.057,304.015 404.111,303.472 403.660 C 302.801 403.103,301.823 403.390,302.217 404.028 C 302.657 404.740,305.988 403.943,305.997 403.124 C 306.005 402.399,305.229 402.504,304.701 403.299 M298.800 404.600 C 298.800 404.981,299.183 405.200,299.849 405.200 C 300.736 405.200,300.821 405.107,300.400 404.600 C 300.126 404.270,299.654 404.000,299.351 404.000 C 299.048 404.000,298.800 404.270,298.800 404.600 M295.600 405.371 C 295.600 405.742,295.942 406.000,296.433 406.000 C 297.408 406.000,297.270 405.065,296.267 404.871 C 295.872 404.794,295.600 404.998,295.600 405.371 M292.290 405.843 C 291.469 406.665,293.622 407.153,294.795 406.412 C 295.280 406.105,295.242 406.042,294.595 406.071 C 294.158 406.091,293.521 405.987,293.179 405.841 C 292.838 405.695,292.438 405.696,292.290 405.843 M287.400 407.200 C 287.264 407.420,285.738 407.600,284.010 407.600 C 282.244 407.600,280.808 407.777,280.732 408.005 C 280.573 408.481,277.118 408.621,275.310 408.224 C 274.451 408.036,273.749 408.146,273.100 408.572 C 272.265 409.119,269.740 409.183,252.574 409.098 C 230.808 408.989,231.200 408.942,231.200 411.649 C 231.200 413.130,231.912 413.504,232.073 412.107 L 232.200 411.000 251.000 410.800 C 262.001 410.683,270.049 410.440,270.400 410.215 C 270.730 410.003,271.483 409.880,272.075 409.942 C 272.666 410.004,273.481 409.878,273.886 409.661 C 274.290 409.445,275.967 409.148,277.611 409.003 C 279.255 408.857,281.950 408.617,283.600 408.469 C 285.250 408.321,286.793 408.074,287.028 407.921 C 287.263 407.767,287.961 407.550,288.577 407.438 C 290.178 407.148,290.349 406.800,288.890 406.800 C 288.207 406.800,287.536 406.980,287.400 407.200 M231.206 428.300 C 231.210 438.592,231.337 442.820,231.628 442.400 C 232.110 441.704,231.986 413.603,231.500 413.601 C 231.335 413.601,231.203 420.215,231.206 428.300 M157.821 577.635 C 158.132 578.137,196.400 578.004,196.400 577.500 C 196.400 577.335,187.659 577.200,176.976 577.200 C 163.099 577.200,157.629 577.324,157.821 577.635 M197.351 578.321 C 197.644 578.794,213.600 578.860,213.600 578.388 C 213.600 578.150,210.416 578.000,205.376 578.000 C 200.853 578.000,197.242 578.145,197.351 578.321 " stroke="none" fill="#c4bba3" fill-rule="evenodd"></path><path id="path3" d="M61.045 31.088 C 60.988 31.146,59.829 31.218,58.470 31.249 C 57.112 31.279,56.000 31.461,56.000 31.652 C 56.000 31.845,66.875 32.000,80.467 32.000 C 93.923 32.000,104.816 31.883,104.673 31.740 C 104.530 31.597,97.990 31.409,90.140 31.322 C 82.290 31.236,75.717 31.072,75.534 30.959 C 75.350 30.846,75.044 30.849,74.854 30.967 C 74.496 31.188,71.346 31.220,64.875 31.070 C 62.827 31.022,61.103 31.030,61.045 31.088 M53.600 31.604 C 53.600 31.822,54.050 32.000,54.600 32.000 C 55.150 32.000,55.600 31.859,55.600 31.687 C 55.600 31.515,55.150 31.337,54.600 31.292 C 54.050 31.246,53.600 31.387,53.600 31.604 M110.000 31.600 C 110.000 31.843,111.800 32.000,114.600 32.000 C 117.400 32.000,119.200 31.843,119.200 31.600 C 119.200 31.357,117.400 31.200,114.600 31.200 C 111.800 31.200,110.000 31.357,110.000 31.600 M52.943 33.595 C 52.916 34.252,53.053 34.691,53.247 34.571 C 53.678 34.305,53.721 32.400,53.296 32.400 C 53.128 32.400,52.970 32.938,52.943 33.595 M120.501 42.200 C 120.505 43.080,120.587 43.393,120.683 42.895 C 120.779 42.398,120.775 41.678,120.675 41.295 C 120.575 40.913,120.496 41.320,120.501 42.200 M52.876 61.500 C 52.848 72.775,52.955 82.000,53.113 81.999 C 53.525 81.997,53.649 49.776,53.255 45.000 C 53.029 42.254,52.910 47.426,52.876 61.500 M120.480 47.704 C 120.231 48.004,120.188 48.457,120.379 48.766 C 120.633 49.176,120.780 49.094,120.993 48.423 C 121.332 47.353,121.073 46.989,120.480 47.704 M120.302 57.900 C 120.580 60.489,120.800 60.562,120.800 58.067 C 120.800 56.930,120.642 56.000,120.449 56.000 C 120.256 56.000,120.190 56.855,120.302 57.900 M52.878 83.782 C 52.848 84.562,52.999 85.200,53.212 85.200 C 53.683 85.200,53.715 83.601,53.259 82.882 C 53.049 82.551,52.912 82.875,52.878 83.782 M52.827 102.626 C 52.856 114.715,52.988 119.504,53.275 118.800 C 53.692 117.777,53.428 86.094,52.998 85.665 C 52.881 85.548,52.804 93.180,52.827 102.626 M120.531 96.200 C 120.533 97.740,120.605 98.321,120.692 97.491 C 120.779 96.661,120.777 95.401,120.689 94.691 C 120.600 93.981,120.529 94.660,120.531 96.200 M120.501 104.600 C 120.505 105.480,120.587 105.793,120.683 105.295 C 120.779 104.798,120.775 104.078,120.675 103.695 C 120.575 103.313,120.496 103.720,120.501 104.600 M120.501 113.400 C 120.505 114.280,120.587 114.593,120.683 114.095 C 120.779 113.598,120.775 112.878,120.675 112.495 C 120.575 112.113,120.496 112.520,120.501 113.400 M120.493 119.600 C 120.493 120.370,120.575 120.685,120.676 120.300 C 120.776 119.915,120.776 119.285,120.676 118.900 C 120.575 118.515,120.493 118.830,120.493 119.600 M52.800 122.776 C 52.800 123.669,52.980 124.400,53.200 124.400 C 53.420 124.400,53.600 123.781,53.600 123.024 C 53.600 122.267,53.420 121.536,53.200 121.400 C 52.958 121.251,52.800 121.796,52.800 122.776 M53.079 125.055 C 52.636 125.498,52.756 164.074,53.199 163.800 C 53.556 163.580,53.815 124.800,53.459 124.800 C 53.390 124.800,53.219 124.915,53.079 125.055 M120.436 128.067 C 120.695 128.551,120.692 128.800,120.427 128.800 C 120.206 128.800,120.141 129.102,120.283 129.471 C 120.513 130.071,120.572 130.060,120.842 129.371 C 121.328 128.128,121.243 127.333,120.622 127.333 C 120.185 127.333,120.139 127.513,120.436 128.067 M120.126 143.367 C 120.114 145.585,120.183 146.815,120.278 146.100 C 120.373 145.385,120.615 144.800,120.815 144.800 C 121.016 144.800,121.139 143.571,121.090 142.069 C 120.944 137.637,120.150 138.706,120.126 143.367 M119.865 160.098 C 119.720 166.534,119.632 182.690,119.670 196.000 C 119.738 219.986,119.741 219.884,120.022 184.400 C 120.178 164.710,120.266 148.554,120.217 148.498 C 120.169 148.442,120.010 153.662,119.865 160.098 M53.796 236.000 C 53.796 275.710,53.843 291.955,53.900 272.100 C 53.957 252.245,53.957 219.755,53.900 199.900 C 53.843 180.045,53.796 196.290,53.796 236.000 M219.601 218.713 C 219.601 218.871,218.230 218.940,216.554 218.867 C 214.855 218.792,213.329 218.911,213.105 219.135 C 212.836 219.404,214.635 219.523,218.551 219.495 C 221.768 219.472,224.400 219.306,224.400 219.127 C 224.400 218.947,224.681 218.800,225.024 218.800 C 225.367 218.800,225.556 218.948,225.444 219.129 C 225.332 219.310,226.896 219.438,228.920 219.412 C 237.274 219.309,240.522 219.189,240.324 218.991 C 239.997 218.663,219.600 218.390,219.601 218.713 M240.800 218.808 C 240.800 219.387,241.802 219.447,243.200 218.953 L 244.600 218.458 242.700 218.480 C 241.655 218.492,240.800 218.639,240.800 218.808 M248.700 218.682 C 249.195 218.778,250.005 218.778,250.500 218.682 C 250.995 218.587,250.590 218.509,249.600 218.509 C 248.610 218.509,248.205 218.587,248.700 218.682 M157.053 219.080 C 156.929 219.204,157.018 219.661,157.251 220.096 C 157.551 220.656,157.547 221.013,157.237 221.323 C 156.997 221.563,156.800 222.294,156.800 222.947 C 156.800 224.370,157.190 224.122,157.447 222.535 C 157.548 221.911,157.677 221.127,157.734 220.793 C 157.791 220.459,157.963 219.983,158.117 219.735 C 158.405 219.268,157.452 218.681,157.053 219.080 M170.600 219.200 C 169.406 219.504,169.407 219.506,170.900 219.553 C 171.725 219.579,172.400 219.420,172.400 219.200 C 172.400 218.759,172.332 218.759,170.600 219.200 M198.638 219.262 C 198.753 219.448,200.772 219.586,203.124 219.568 C 205.476 219.551,207.220 219.475,207.000 219.399 C 206.068 219.078,198.447 218.953,198.638 219.262 M231.091 219.092 C 230.261 219.179,229.001 219.177,228.291 219.089 C 227.581 219.000,228.260 218.929,229.800 218.931 C 231.340 218.933,231.921 219.005,231.091 219.092 M210.305 219.483 C 210.802 219.579,211.522 219.575,211.905 219.475 C 212.287 219.375,211.880 219.296,211.000 219.301 C 210.120 219.305,209.807 219.387,210.305 219.483 M271.691 219.681 C 271.785 219.966,272.362 220.259,272.974 220.331 C 273.728 220.419,274.033 220.300,273.920 219.961 C 273.829 219.686,273.251 219.394,272.637 219.312 C 271.856 219.207,271.572 219.318,271.691 219.681 M280.006 220.500 C 279.998 221.384,281.691 221.455,282.400 220.600 C 283.001 219.876,282.380 219.796,281.621 220.500 C 281.190 220.900,281.139 220.900,281.365 220.500 C 281.520 220.225,281.457 220.000,281.224 220.000 C 280.991 220.000,280.797 220.225,280.794 220.500 C 280.790 220.833,280.658 220.800,280.400 220.400 C 280.069 219.887,280.011 219.902,280.006 220.500 M120.068 221.400 C 120.062 222.060,120.211 222.960,120.400 223.400 C 120.870 224.494,120.870 222.667,120.400 221.200 C 120.088 220.225,120.079 220.230,120.068 221.400 M287.024 221.413 C 286.346 221.925,286.334 222.000,286.924 222.000 C 287.296 222.000,287.600 221.809,287.600 221.576 C 287.600 221.343,287.808 221.281,288.062 221.438 C 288.348 221.615,288.415 221.548,288.238 221.262 C 287.893 220.704,287.974 220.694,287.024 221.413 M290.800 222.400 C 289.976 222.664,289.941 222.726,290.600 222.754 C 291.040 222.773,291.670 222.613,292.000 222.400 C 292.701 221.947,292.214 221.947,290.800 222.400 M297.100 223.876 C 296.715 223.976,296.400 224.209,296.400 224.392 C 296.400 224.575,296.760 224.631,297.200 224.516 C 297.640 224.401,298.000 224.148,298.000 223.953 C 298.000 223.759,297.955 223.621,297.900 223.646 C 297.845 223.672,297.485 223.775,297.100 223.876 M120.416 227.000 C 120.194 235.059,120.221 239.200,120.495 239.200 C 120.663 239.200,120.800 239.470,120.800 239.800 C 120.800 240.130,120.620 240.400,120.400 240.400 C 120.167 240.400,120.000 241.733,120.000 243.600 C 120.000 245.699,120.154 246.800,120.449 246.800 C 120.769 246.800,120.776 246.947,120.472 247.313 C 120.202 247.639,120.182 248.042,120.417 248.413 C 120.717 248.888,120.790 248.848,120.800 248.200 C 120.807 247.760,120.886 243.573,120.976 238.895 C 121.066 234.217,121.011 230.470,120.853 230.567 C 120.695 230.665,120.637 229.618,120.725 228.240 C 120.813 226.862,120.796 225.389,120.689 224.967 C 120.581 224.545,120.458 225.460,120.416 227.000 M304.806 226.276 C 304.796 227.051,305.355 227.168,306.181 226.565 C 306.605 226.254,306.749 226.000,306.500 226.000 C 306.251 226.000,305.924 226.199,305.774 226.443 C 305.583 226.751,305.396 226.721,305.156 226.343 C 304.926 225.980,304.810 225.958,304.806 226.276 M322.946 234.602 C 324.393 235.357,324.614 235.357,323.857 234.600 C 323.527 234.270,322.929 234.001,322.529 234.002 C 322.008 234.004,322.127 234.176,322.946 234.602 M333.600 241.000 C 333.874 241.330,334.318 241.600,334.587 241.600 C 334.856 241.600,335.402 241.960,335.800 242.400 C 336.198 242.840,336.668 243.200,336.844 243.200 C 337.020 243.200,336.714 242.750,336.164 242.200 C 335.614 241.650,334.902 241.200,334.582 241.200 C 334.262 241.200,334.000 241.020,334.000 240.800 C 334.000 240.580,333.798 240.400,333.551 240.400 C 333.241 240.400,333.256 240.585,333.600 241.000 M338.800 244.600 C 339.317 245.150,340.023 245.589,340.370 245.575 C 340.766 245.559,340.662 245.414,340.091 245.184 C 339.591 244.983,339.077 244.545,338.948 244.210 C 338.820 243.874,338.522 243.600,338.287 243.600 C 338.053 243.600,338.283 244.050,338.800 244.600 M156.531 249.800 C 156.533 251.340,156.605 251.921,156.692 251.091 C 156.779 250.261,156.777 249.001,156.689 248.291 C 156.600 247.581,156.529 248.260,156.531 249.800 M120.358 252.400 C 120.123 253.567,120.522 255.577,120.874 254.996 C 121.006 254.778,120.989 253.880,120.836 253.000 C 120.600 251.634,120.530 251.547,120.358 252.400 M349.600 254.600 C 350.795 255.810,351.863 256.800,351.973 256.800 C 352.083 256.800,351.195 255.810,350.000 254.600 C 348.805 253.390,347.737 252.400,347.627 252.400 C 347.517 252.400,348.405 253.390,349.600 254.600 M156.501 257.000 C 156.505 257.880,156.587 258.193,156.683 257.695 C 156.779 257.198,156.775 256.478,156.675 256.095 C 156.575 255.713,156.496 256.120,156.501 257.000 M120.551 261.600 C 120.551 264.130,120.616 265.165,120.696 263.900 C 120.775 262.635,120.775 260.565,120.696 259.300 C 120.616 258.035,120.551 259.070,120.551 261.600 M120.667 272.667 C 120.520 272.813,120.430 274.298,120.466 275.967 L 120.532 279.000 120.782 275.800 C 121.055 272.304,121.054 272.279,120.667 272.667 M266.200 275.578 C 265.760 275.755,265.277 275.829,265.128 275.743 C 264.978 275.657,264.737 275.778,264.593 276.012 C 264.422 276.288,264.728 276.372,265.465 276.251 C 266.089 276.149,266.915 276.051,267.300 276.033 C 267.685 276.015,268.000 275.820,268.000 275.600 C 268.000 275.133,267.327 275.125,266.200 275.578 M231.062 277.400 C 231.145 278.060,231.240 278.817,231.273 279.082 C 231.306 279.348,231.483 279.472,231.667 279.359 C 232.122 279.078,232.090 278.000,231.627 278.000 C 231.421 278.000,231.176 277.595,231.082 277.100 C 230.987 276.605,230.978 276.740,231.062 277.400 M120.600 282.400 C 120.600 284.160,120.735 285.600,120.900 285.600 C 121.065 285.600,121.200 284.160,121.200 282.400 C 121.200 280.640,121.065 279.200,120.900 279.200 C 120.735 279.200,120.600 280.640,120.600 282.400 M295.213 287.439 C 295.232 287.987,296.363 289.371,296.598 289.135 C 296.712 289.021,296.444 288.512,296.003 288.003 C 295.561 287.494,295.206 287.240,295.213 287.439 M299.911 294.223 C 300.400 294.565,300.800 295.118,300.800 295.451 C 300.800 295.784,301.070 296.327,301.400 296.657 C 301.933 297.190,302.000 297.187,302.000 296.629 C 302.000 296.283,301.820 296.000,301.600 296.000 C 301.380 296.000,301.200 295.705,301.200 295.344 C 301.200 294.679,300.122 293.636,299.411 293.613 C 299.197 293.606,299.422 293.880,299.911 294.223 M302.302 298.600 C 302.407 299.150,302.652 299.600,302.847 299.600 C 303.041 299.600,303.200 299.960,303.200 300.400 C 303.200 300.840,303.020 301.200,302.800 301.200 C 302.580 301.200,302.400 301.402,302.400 301.649 C 302.400 301.959,302.585 301.944,303.000 301.600 C 303.683 301.033,303.798 299.769,303.200 299.400 C 302.980 299.264,302.800 298.803,302.800 298.376 C 302.800 297.949,302.645 297.600,302.455 297.600 C 302.266 297.600,302.197 298.050,302.302 298.600 M373.102 300.600 C 372.997 301.150,373.066 301.600,373.255 301.600 C 373.445 301.600,373.600 301.150,373.600 300.600 C 373.600 300.050,373.531 299.600,373.447 299.600 C 373.362 299.600,373.207 300.050,373.102 300.600 M304.046 302.700 C 304.021 303.195,303.809 303.600,303.576 303.600 C 303.343 303.600,303.278 303.803,303.432 304.051 C 303.817 304.674,304.509 303.387,304.273 302.487 C 304.141 301.985,304.080 302.043,304.046 302.700 M231.746 307.400 C 231.747 309.600,231.814 310.449,231.895 309.287 C 231.976 308.124,231.976 306.324,231.893 305.287 C 231.811 304.249,231.745 305.200,231.746 307.400 M120.294 305.839 C 119.987 306.146,120.385 307.200,120.807 307.200 C 121.149 307.200,121.102 306.169,120.745 305.812 C 120.629 305.695,120.426 305.708,120.294 305.839 M53.785 329.000 C 53.785 339.560,53.837 343.823,53.900 338.472 C 53.963 333.122,53.963 324.482,53.900 319.272 C 53.836 314.063,53.785 318.440,53.785 329.000 M304.909 315.731 C 304.978 320.148,305.134 321.622,305.576 322.035 C 306.068 322.495,306.109 322.461,305.855 321.799 C 305.691 321.373,305.565 318.643,305.574 315.733 C 305.583 312.754,305.422 310.337,305.205 310.203 C 304.963 310.054,304.853 312.115,304.909 315.731 M373.652 315.400 C 373.631 318.150,373.771 320.400,373.963 320.400 C 374.371 320.400,374.767 317.627,374.392 317.395 C 374.252 317.309,374.242 316.375,374.369 315.319 C 374.651 312.973,374.469 310.400,374.021 310.400 C 373.839 310.400,373.673 312.650,373.652 315.400 M156.493 313.600 C 156.493 314.370,156.575 314.685,156.676 314.300 C 156.776 313.915,156.776 313.285,156.676 312.900 C 156.575 312.515,156.493 312.830,156.493 313.600 M120.435 327.100 C 120.454 330.345,120.610 333.900,120.782 335.000 C 120.994 336.365,121.110 334.494,121.147 329.100 C 121.181 324.064,121.055 321.200,120.800 321.200 C 120.550 321.200,120.413 323.410,120.435 327.100 M304.000 324.400 C 304.000 324.620,304.180 324.800,304.400 324.800 C 304.979 324.800,304.893 326.296,304.300 326.535 C 304.001 326.656,304.082 326.750,304.500 326.768 C 305.219 326.801,305.423 325.847,304.957 324.633 C 304.689 323.935,304.000 323.767,304.000 324.400 M231.467 331.067 C 231.036 331.497,231.159 336.400,231.600 336.400 C 231.829 336.400,232.000 335.200,232.000 333.600 C 232.000 330.785,231.956 330.577,231.467 331.067 M371.200 338.200 C 371.200 338.530,371.380 338.800,371.600 338.800 C 371.820 338.800,372.000 338.530,372.000 338.200 C 372.000 337.870,371.820 337.600,371.600 337.600 C 371.380 337.600,371.200 337.870,371.200 338.200 M296.480 342.056 C 295.315 343.177,294.425 344.158,294.504 344.237 C 294.583 344.316,295.620 343.395,296.810 342.190 C 299.533 339.433,299.305 339.340,296.480 342.056 M369.246 342.451 C 369.221 342.809,369.470 343.326,369.800 343.600 C 370.215 343.944,370.400 343.959,370.400 343.649 C 370.400 343.402,370.233 343.200,370.029 343.200 C 369.825 343.200,369.576 342.885,369.476 342.500 C 369.321 341.909,369.286 341.902,369.246 342.451 M292.254 346.233 C 291.623 346.787,291.187 347.320,291.283 347.416 C 291.379 347.513,291.974 347.054,292.604 346.396 C 293.996 344.943,293.816 344.859,292.254 346.233 M231.269 347.800 C 231.217 348.570,231.316 349.199,231.487 349.199 C 231.659 349.198,231.814 348.568,231.830 347.799 C 231.869 345.977,231.392 345.978,231.269 347.800 M287.300 349.482 C 286.805 349.578,286.400 349.823,286.400 350.028 C 286.400 350.233,286.100 350.400,285.733 350.400 C 285.367 350.400,285.180 350.514,285.319 350.652 C 285.568 350.901,288.400 349.733,288.400 349.381 C 288.400 349.282,288.355 349.225,288.300 349.254 C 288.245 349.284,287.795 349.387,287.300 349.482 M120.676 351.446 C 120.940 354.155,121.132 354.533,121.162 352.400 C 121.176 351.410,121.030 350.351,120.837 350.046 C 120.621 349.705,120.559 350.242,120.676 351.446 M276.000 353.972 C 276.000 354.177,275.595 354.422,275.100 354.518 C 274.328 354.666,274.357 354.699,275.300 354.746 C 276.035 354.782,276.400 354.601,276.400 354.200 C 276.400 353.870,276.310 353.600,276.200 353.600 C 276.090 353.600,276.000 353.767,276.000 353.972 M271.200 354.780 C 271.200 354.989,270.165 355.225,268.900 355.304 L 266.600 355.449 269.287 355.524 C 271.531 355.588,271.937 355.501,271.745 355.000 C 271.485 354.323,271.200 354.208,271.200 354.780 M231.606 355.113 C 231.597 355.892,232.554 356.094,234.051 355.629 L 235.400 355.209 233.842 355.434 C 232.779 355.587,232.176 355.490,231.948 355.129 C 231.683 354.712,231.611 354.709,231.606 355.113 M236.905 355.487 C 237.514 355.579,238.414 355.577,238.905 355.482 C 239.397 355.387,238.900 355.311,237.800 355.314 C 236.700 355.317,236.297 355.395,236.905 355.487 M363.353 356.570 C 362.992 357.349,363.012 357.494,363.453 357.324 C 363.754 357.209,364.000 356.774,364.000 356.357 C 364.000 355.370,363.893 355.405,363.353 356.570 M120.173 356.444 C 119.788 357.067,120.258 357.319,121.014 356.896 C 121.616 356.559,121.620 356.493,121.057 356.277 C 120.710 356.144,120.312 356.219,120.173 356.444 M124.066 357.249 C 124.360 357.435,125.500 357.576,126.600 357.562 C 128.995 357.532,128.597 357.329,125.666 357.087 C 124.418 356.984,123.754 357.051,124.066 357.249 M130.626 357.242 C 130.895 357.677,131.882 357.715,132.138 357.300 C 132.240 357.135,131.892 356.974,131.364 356.942 C 130.837 356.911,130.505 357.046,130.626 357.242 M134.562 357.261 C 134.447 357.448,134.893 357.600,135.553 357.600 C 136.213 357.600,136.857 357.432,136.984 357.227 C 137.111 357.021,136.665 356.869,135.993 356.888 C 135.321 356.907,134.677 357.075,134.562 357.261 M137.954 357.281 C 137.523 357.588,137.556 357.625,138.100 357.450 C 138.485 357.326,138.800 357.384,138.800 357.577 C 138.800 357.771,139.065 357.890,139.388 357.843 C 140.085 357.741,140.695 357.213,140.167 357.169 C 139.965 357.153,139.509 357.082,139.154 357.013 C 138.798 356.943,138.258 357.064,137.954 357.281 M141.076 357.453 C 141.220 357.830,141.487 357.875,141.987 357.607 C 142.376 357.399,142.808 357.342,142.947 357.481 C 143.086 357.620,143.200 357.535,143.200 357.293 C 143.200 357.051,142.676 356.868,142.036 356.887 C 141.238 356.909,140.936 357.088,141.076 357.453 M144.005 357.197 C 143.618 357.436,143.626 357.542,144.040 357.680 C 144.703 357.901,146.400 357.594,146.400 357.253 C 146.399 356.882,144.583 356.840,144.005 357.197 M147.400 357.200 C 147.536 357.420,147.917 357.600,148.247 357.600 C 148.577 357.600,148.736 357.420,148.600 357.200 C 148.464 356.980,148.083 356.800,147.753 356.800 C 147.423 356.800,147.264 356.980,147.400 357.200 M149.478 357.056 C 149.015 357.518,149.585 357.929,150.396 357.717 C 150.833 357.603,151.092 357.350,150.972 357.155 C 150.717 356.742,149.848 356.685,149.478 357.056 M153.306 357.325 C 153.510 357.944,155.200 358.193,155.200 357.604 C 155.200 357.356,155.368 357.256,155.572 357.383 C 155.777 357.509,156.045 357.451,156.167 357.254 C 156.289 357.056,155.660 356.884,154.769 356.872 C 153.690 356.857,153.202 357.008,153.306 357.325 M352.900 371.398 C 352.242 372.146,352.267 372.426,352.969 372.157 C 353.570 371.926,354.179 370.789,353.687 370.815 C 353.529 370.824,353.175 371.086,352.900 371.398 M327.600 392.233 C 326.808 392.673,326.751 392.789,327.329 392.794 C 327.729 392.797,328.327 392.530,328.657 392.200 C 329.386 391.471,328.948 391.485,327.600 392.233 M322.000 395.433 C 321.442 395.743,321.265 395.985,321.600 395.981 C 321.930 395.978,322.549 395.710,322.976 395.387 C 323.939 394.659,323.345 394.687,322.000 395.433 M315.214 398.774 C 314.696 399.741,314.693 400.000,315.200 400.000 C 315.420 400.000,315.600 399.655,315.600 399.233 C 315.600 398.812,315.825 398.376,316.100 398.265 C 316.477 398.113,316.480 398.055,316.114 398.032 C 315.847 398.014,315.442 398.348,315.214 398.774 M53.799 400.000 C 54.366 401.681,54.519 408.879,53.994 409.204 C 53.676 409.400,53.736 409.566,54.187 409.740 C 54.570 409.886,54.740 409.827,54.597 409.595 C 54.461 409.374,54.849 409.176,55.476 409.146 C 56.420 409.100,56.456 409.063,55.700 408.918 C 54.833 408.751,54.800 408.586,54.800 404.421 C 54.800 400.865,54.681 400.001,54.131 399.549 C 53.527 399.054,53.494 399.098,53.799 400.000 M309.029 401.029 C 308.341 401.716,308.155 402.999,308.800 402.600 C 309.020 402.464,309.200 402.102,309.200 401.796 C 309.200 401.490,309.515 401.056,309.900 400.832 C 310.285 400.608,310.388 400.419,310.129 400.412 C 309.869 400.405,309.374 400.683,309.029 401.029 M287.034 407.057 C 286.824 407.603,286.883 407.629,287.385 407.212 C 287.717 406.937,288.609 406.784,289.366 406.872 C 290.124 406.960,290.656 406.890,290.548 406.716 C 290.162 406.092,287.298 406.369,287.034 407.057 M281.907 407.490 C 282.626 407.579,283.706 407.577,284.307 407.486 C 284.908 407.395,284.320 407.322,283.000 407.324 C 281.680 407.326,281.188 407.401,281.907 407.490 M276.200 408.295 C 276.860 408.392,277.629 408.661,277.910 408.892 C 278.190 409.124,278.535 409.198,278.676 409.057 C 278.818 408.916,278.713 408.800,278.443 408.800 C 278.173 408.800,278.064 408.620,278.200 408.400 C 278.352 408.154,277.784 408.023,276.724 408.060 C 275.357 408.107,275.249 408.156,276.200 408.295 M83.531 408.700 C 96.803 408.758,118.403 408.758,131.531 408.700 C 144.659 408.641,133.800 408.594,107.400 408.594 C 81.000 408.594,70.259 408.641,83.531 408.700 M236.305 409.083 C 236.802 409.179,237.522 409.175,237.905 409.075 C 238.287 408.975,237.880 408.896,237.000 408.901 C 236.120 408.905,235.807 408.987,236.305 409.083 M239.905 409.083 C 240.402 409.179,241.122 409.175,241.505 409.075 C 241.887 408.975,241.480 408.896,240.600 408.901 C 239.720 408.905,239.407 408.987,239.905 409.083 M248.725 409.099 C 252.314 409.166,258.074 409.166,261.525 409.099 C 264.976 409.033,262.040 408.978,255.000 408.978 C 247.960 408.979,245.136 409.033,248.725 409.099 M231.753 419.000 C 231.753 421.640,231.818 422.668,231.897 421.284 C 231.975 419.901,231.974 417.741,231.895 416.484 C 231.816 415.228,231.752 416.360,231.753 419.000 M231.206 467.900 C 231.210 470.933,231.332 472.023,231.617 471.600 C 232.073 470.924,231.966 463.604,231.500 463.601 C 231.335 463.601,231.203 465.535,231.206 467.900 M231.259 501.100 C 231.222 519.298,231.342 530.000,231.583 530.000 C 232.029 530.000,232.046 482.461,231.602 476.200 C 231.446 474.000,231.292 485.205,231.259 501.100 M231.225 533.500 C 231.245 535.869,231.340 536.377,231.630 535.654 C 232.070 534.555,231.978 530.400,231.514 530.400 C 231.341 530.400,231.211 531.795,231.225 533.500 M231.275 539.600 L 231.295 542.600 231.686 540.449 C 231.949 539.005,231.942 538.020,231.666 537.449 C 231.346 536.790,231.259 537.271,231.275 539.600 M231.467 543.867 C 231.320 544.013,231.200 551.603,231.200 560.733 C 231.200 569.863,231.335 577.198,231.500 577.033 C 231.746 576.787,232.054 543.600,231.809 543.600 C 231.768 543.600,231.613 543.720,231.467 543.867 M156.400 571.353 C 156.400 571.683,156.583 572.066,156.807 572.204 C 157.030 572.342,157.116 572.612,156.997 572.805 C 156.540 573.545,156.502 576.433,156.952 576.285 C 157.554 576.086,157.789 572.000,157.197 572.000 C 156.953 572.000,156.856 571.832,156.983 571.628 C 157.109 571.423,157.030 571.142,156.807 571.004 C 156.583 570.866,156.400 571.023,156.400 571.353 M190.307 577.890 C 191.026 577.979,192.106 577.977,192.707 577.886 C 193.308 577.795,192.720 577.722,191.400 577.724 C 190.080 577.726,189.588 577.801,190.307 577.890 M220.200 578.024 C 218.840 578.343,218.885 578.400,220.700 578.659 C 221.421 578.762,222.000 578.667,222.000 578.446 C 222.000 577.832,221.510 577.717,220.200 578.024 " stroke="none" fill="#c4b494" fill-rule="evenodd"></path><path id="path4" d="M54.604 31.207 C 54.742 31.430,55.023 31.509,55.228 31.383 C 55.432 31.256,55.603 31.388,55.606 31.676 C 55.611 32.082,55.692 32.075,55.966 31.642 C 56.160 31.335,56.602 31.192,56.947 31.324 C 57.292 31.457,57.681 31.393,57.811 31.183 C 57.948 30.960,57.273 30.800,56.200 30.800 C 55.051 30.800,54.448 30.954,54.604 31.207 M104.759 31.721 C 104.936 31.897,106.233 31.985,107.641 31.916 L 110.200 31.791 107.318 31.595 C 105.733 31.488,104.581 31.544,104.759 31.721 M53.067 34.667 C 52.640 35.093,52.759 40.727,53.200 41.000 C 53.455 41.157,53.600 40.004,53.600 37.824 C 53.600 34.394,53.562 34.171,53.067 34.667 M120.520 45.600 C 120.520 46.810,120.595 47.305,120.687 46.700 C 120.778 46.095,120.778 45.105,120.687 44.500 C 120.595 43.895,120.520 44.390,120.520 45.600 M52.991 119.640 C 52.830 120.375,52.898 121.058,53.160 121.320 C 53.480 121.640,53.600 121.303,53.600 120.080 C 53.600 118.091,53.368 117.923,52.991 119.640 M120.509 134.400 C 120.509 135.390,120.587 135.795,120.682 135.300 C 120.778 134.805,120.778 133.995,120.682 133.500 C 120.587 133.005,120.509 133.410,120.509 134.400 M173.500 218.709 C 170.840 219.057,172.530 219.667,175.300 219.359 C 178.628 218.989,179.842 218.996,184.000 219.411 C 186.605 219.671,187.691 219.336,185.688 218.890 C 184.740 218.679,174.854 218.532,173.500 218.709 M189.300 218.721 C 184.963 218.971,187.421 219.502,193.064 219.535 C 197.120 219.558,198.801 219.441,198.513 219.153 C 198.092 218.732,193.141 218.500,189.300 218.721 M216.313 218.697 C 218.317 218.792,219.140 218.974,218.951 219.280 C 218.785 219.548,218.859 219.611,219.138 219.438 C 220.278 218.734,219.375 218.406,216.500 218.479 L 213.400 218.559 216.313 218.697 M228.291 219.089 C 229.001 219.177,230.261 219.179,231.091 219.092 C 231.921 219.005,231.340 218.933,229.800 218.931 C 228.260 218.929,227.581 219.000,228.291 219.089 M157.100 223.733 C 156.606 224.940,156.723 226.774,157.238 225.890 C 157.465 225.499,157.595 224.689,157.526 224.090 C 157.421 223.180,157.351 223.121,157.100 223.733 M156.400 228.200 C 156.400 228.970,156.470 229.600,156.556 229.600 C 156.642 229.600,156.786 228.970,156.876 228.200 C 156.966 227.430,156.896 226.800,156.720 226.800 C 156.544 226.800,156.400 227.430,156.400 228.200 M156.524 233.800 C 156.526 235.120,156.601 235.612,156.690 234.893 C 156.779 234.174,156.777 233.094,156.686 232.493 C 156.595 231.892,156.522 232.480,156.524 233.800 M120.893 237.600 C 120.893 238.370,120.975 238.685,121.076 238.300 C 121.176 237.915,121.176 237.285,121.076 236.900 C 120.975 236.515,120.893 236.830,120.893 237.600 M120.937 243.800 C 120.939 245.560,121.009 246.230,121.093 245.289 C 121.178 244.349,121.177 242.909,121.091 242.089 C 121.005 241.270,120.936 242.040,120.937 243.800 M156.546 263.800 C 156.547 266.000,156.614 266.849,156.695 265.687 C 156.776 264.524,156.776 262.724,156.693 261.687 C 156.611 260.649,156.545 261.600,156.546 263.800 M156.550 274.600 C 156.551 277.020,156.616 277.958,156.696 276.685 C 156.776 275.412,156.775 273.432,156.694 272.285 C 156.614 271.138,156.549 272.180,156.550 274.600 M267.855 275.800 C 267.696 276.215,267.882 276.400,268.462 276.400 C 269.160 276.400,269.216 276.301,268.800 275.800 C 268.526 275.470,268.253 275.200,268.194 275.200 C 268.134 275.200,267.982 275.470,267.855 275.800 M120.534 282.400 C 120.534 284.050,120.605 284.725,120.691 283.900 C 120.778 283.075,120.778 281.725,120.691 280.900 C 120.605 280.075,120.534 280.750,120.534 282.400 M296.203 289.595 C 296.058 289.830,296.237 289.884,296.645 289.727 C 297.111 289.549,297.238 289.615,297.042 289.932 C 296.865 290.218,297.014 290.400,297.425 290.400 C 297.978 290.400,298.009 290.293,297.600 289.800 C 297.023 289.105,296.549 289.035,296.203 289.595 M120.376 292.900 C 120.363 293.615,120.318 295.145,120.276 296.300 C 120.234 297.455,120.335 298.400,120.500 298.400 C 120.665 298.400,120.800 296.870,120.800 295.000 C 120.800 291.841,120.429 290.006,120.376 292.900 M156.800 299.200 C 156.800 299.640,156.980 300.000,157.200 300.000 C 157.420 300.000,157.600 299.640,157.600 299.200 C 157.600 298.760,157.420 298.400,157.200 298.400 C 156.980 298.400,156.800 298.760,156.800 299.200 M156.800 302.733 C 156.800 304.090,156.957 305.200,157.149 305.200 C 157.477 305.200,157.301 300.793,156.959 300.433 C 156.871 300.342,156.800 301.377,156.800 302.733 M156.800 309.000 C 156.800 310.467,156.974 311.600,157.200 311.600 C 157.426 311.600,157.600 310.467,157.600 309.000 C 157.600 307.533,157.426 306.400,157.200 306.400 C 156.974 306.400,156.800 307.533,156.800 309.000 M120.554 308.177 C 120.432 308.494,120.403 309.079,120.489 309.477 C 120.587 309.928,120.724 309.712,120.854 308.900 C 121.071 307.538,120.930 307.196,120.554 308.177 M120.957 315.600 C 120.957 318.570,121.020 319.785,121.097 318.300 C 121.174 316.815,121.174 314.385,121.097 312.900 C 121.020 311.415,120.957 312.630,120.957 315.600 M156.806 314.700 C 156.811 315.557,156.898 315.668,157.200 315.200 C 157.706 314.417,157.706 313.600,157.200 313.600 C 156.980 313.600,156.803 314.095,156.806 314.700 M156.828 323.300 C 156.852 324.389,156.912 324.470,157.200 323.800 C 157.675 322.695,157.675 322.000,157.200 322.000 C 156.980 322.000,156.813 322.585,156.828 323.300 M120.509 335.200 C 120.509 336.190,120.587 336.595,120.682 336.100 C 120.778 335.605,120.778 334.795,120.682 334.300 C 120.587 333.805,120.509 334.210,120.509 335.200 M157.092 337.042 C 156.931 337.202,156.816 337.978,156.836 338.767 L 156.872 340.200 157.257 338.863 C 157.663 337.452,157.582 336.552,157.092 337.042 M156.840 345.100 C 156.815 347.860,156.955 349.600,157.200 349.600 C 157.675 349.600,157.675 343.084,157.200 341.600 C 156.996 340.962,156.865 342.228,156.840 345.100 M289.892 347.042 C 289.731 347.202,289.600 347.609,289.600 347.947 C 289.600 348.397,289.718 348.442,290.045 348.115 C 290.290 347.870,290.421 347.463,290.337 347.210 C 290.252 346.957,290.052 346.881,289.892 347.042 M53.760 353.800 C 53.761 357.100,53.822 358.397,53.898 356.682 C 53.973 354.967,53.972 352.267,53.897 350.682 C 53.821 349.097,53.759 350.500,53.760 353.800 M156.534 350.627 C 156.402 350.972,156.462 351.422,156.667 351.627 C 156.898 351.858,157.040 351.619,157.040 351.000 C 157.040 349.851,156.878 349.731,156.534 350.627 M120.400 353.133 C 120.400 354.830,120.568 356.000,120.811 356.000 C 121.078 356.000,121.129 355.055,120.956 353.300 C 120.602 349.699,120.400 349.639,120.400 353.133 M235.020 355.173 C 235.242 355.392,235.981 355.409,236.800 355.214 L 238.200 354.882 236.420 354.841 C 235.314 354.815,234.784 354.941,235.020 355.173 M242.105 355.487 C 242.714 355.579,243.614 355.577,244.105 355.482 C 244.597 355.387,244.100 355.311,243.000 355.314 C 241.900 355.317,241.497 355.395,242.105 355.487 M252.500 355.476 C 252.885 355.576,253.515 355.576,253.900 355.476 C 254.285 355.375,253.970 355.293,253.200 355.293 C 252.430 355.293,252.115 355.375,252.500 355.476 M263.305 355.487 C 263.914 355.579,264.814 355.577,265.305 355.482 C 265.797 355.387,265.300 355.311,264.200 355.314 C 263.100 355.317,262.697 355.395,263.305 355.487 M54.050 367.900 C 54.023 372.135,54.152 375.600,54.338 375.600 C 54.781 375.600,54.860 364.317,54.432 362.000 C 54.200 360.739,54.085 362.505,54.050 367.900 M53.775 386.400 C 53.775 392.230,53.831 394.615,53.899 391.700 C 53.967 388.785,53.967 384.015,53.899 381.100 C 53.831 378.185,53.775 380.570,53.775 386.400 M311.030 400.667 C 310.889 401.034,310.937 401.497,311.137 401.697 C 311.354 401.914,311.500 401.647,311.500 401.030 C 311.500 399.831,311.385 399.742,311.030 400.667 M272.573 408.368 C 272.368 408.563,271.840 408.809,271.400 408.915 L 270.600 409.107 271.400 409.147 C 272.291 409.192,273.497 408.563,273.162 408.228 C 273.043 408.110,272.779 408.173,272.573 408.368 M156.000 409.151 C 156.000 409.398,156.167 409.600,156.371 409.600 C 156.575 409.600,156.824 409.915,156.924 410.300 C 157.079 410.891,157.114 410.898,157.154 410.349 C 157.179 409.991,156.930 409.474,156.600 409.200 C 156.185 408.856,156.000 408.841,156.000 409.151 M231.731 475.800 C 231.733 477.340,231.805 477.921,231.892 477.091 C 231.979 476.261,231.977 475.001,231.889 474.291 C 231.800 473.581,231.729 474.260,231.731 475.800 M231.693 486.800 C 231.693 487.570,231.775 487.885,231.876 487.500 C 231.976 487.115,231.976 486.485,231.876 486.100 C 231.775 485.715,231.693 486.030,231.693 486.800 M156.841 541.380 C 156.811 542.840,156.918 543.242,157.247 542.913 C 157.566 542.594,157.578 542.024,157.289 540.933 L 156.883 539.400 156.841 541.380 M231.709 541.600 C 231.709 542.590,231.787 542.995,231.882 542.500 C 231.978 542.005,231.978 541.195,231.882 540.700 C 231.787 540.205,231.709 540.610,231.709 541.600 M156.885 560.689 C 156.915 565.341,157.020 566.786,157.229 565.400 C 157.669 562.478,157.663 554.486,157.221 554.213 C 156.988 554.069,156.859 556.555,156.885 560.689 M231.693 557.600 C 231.693 558.370,231.775 558.685,231.876 558.300 C 231.976 557.915,231.976 557.285,231.876 556.900 C 231.775 556.515,231.693 556.830,231.693 557.600 M156.643 570.270 C 156.887 570.451,157.038 570.915,156.979 571.300 C 156.919 571.685,157.047 572.000,157.263 572.000 C 157.885 572.000,157.466 570.280,156.800 570.101 C 156.411 569.996,156.356 570.055,156.643 570.270 M222.000 578.400 C 222.000 578.620,222.360 578.800,222.800 578.800 C 223.240 578.800,223.600 578.620,223.600 578.400 C 223.600 578.180,223.240 578.000,222.800 578.000 C 222.360 578.000,222.000 578.180,222.000 578.400 " stroke="none" fill="#bcb494" fill-rule="evenodd"></path></g></svg>